<svg fill="currentColor" style="vertical-align: -0.82ex;" xmlns="http://www.w3.org/2000/svg" width="25.065ex" height="2.885ex" viewBox="0 -995.2 12081.5 1390.4"><g stroke="currentColor" stroke-width="0" transform="scale(1,-1)"><g><g><path d="M556 0C556 58 562 112 572 164L537 164C536 155 527 61 499 51C478 44 405 39 315 39C263 39 245 41 216 47L216 327C244 329 274 330 319 330C393 330 420 327 438 318L446 293L451 234L481 234C478 327 478 327 478 345C478 361 478 361 481 461L451 461L446 409C445 400 442 391 438 383C420 375 392 372 326 372C284 372 250 373 216 375L216 642C247 649 264 650 333 650C390 650 446 645 478 636C502 630 505 625 505 602L505 537L540 537C540 597 545 645 556 689C507 691 476 692 432 692C339 692 246 689 200 689C166 689 121 690 22 692L22 662L70 659C116 656 121 648 121 569L121 120C121 41 117 34 70 30L34 27L34-3C100-1 129 0 157 0C203 0 319-3 389-3C420-3 420-3 556 0Z"/><path d="M283 49C203 49 183 94 183 170L183 465L174 469C123 448 71 434 18 428L18 400L55 400C95 400 99 393 99 327L99 159C99 70 104-12 240-12C285-12 325 2 352 27L419 89C419 60 418 44 415-3C482 0 483 0 498 0C512 0 512 0 581-3L581 27L540 30C506 32 503 38 503 102L503 465L494 469C443 448 391 434 338 428L338 400L375 400C415 400 419 393 419 327L419 164C419 126 370 49 283 49Z" transform="translate(610,0)"/><path d="M23 661L79 661C97 661 104 650 104 620L104 102C104 39 101 32 67 30L21 27L21-3C121 0 121 0 146 0C171 0 171 0 271-3L271 27L225 30C191 32 188 39 188 102L188 718L179 726C135 709 102 701 23 689Z" transform="translate(1212,0)"/><path d="M250-20C315-20 405 18 417 36L437 70L424 80C360 42 337 33 294 33C229 33 175 62 147 111C128 144 121 172 119 230C140 227 170 226 204 226C290 226 399 234 446 244C447 258 448 267 448 279C448 394 374 469 262 469C225 469 180 464 140 440C58 392 26 323 26 219C26 25 161-20 250-20M359 267C335 264 284 261 233 261C190 261 147 264 121 270C121 317 125 339 138 365C159 409 202 436 250 436C283 436 309 423 327 396C349 363 356 334 359 267Z" transform="translate(1502,0)"/><path d="M23 400L60 400C100 400 104 393 104 327L104 102C104 39 101 32 67 30L21 27L21-3C93-1 119 0 144 0C164 0 164 0 287-3L287 27L235 30C190 33 188 36 188 102L188 274C188 334 228 384 277 384C307 384 328 370 344 338L365 338L374 458C363 465 345 469 327 469C297 469 265 453 244 428L188 362L188 465L179 469C128 448 76 434 23 428Z" transform="translate(1980,0)"/><path d="" transform="translate(2374,0)"/><path d="M10 400L47 400C87 400 91 393 91 327L91-176C91-239 88-246 54-248L8-251L8-281C108-278 108-278 133-278C158-278 158-278 258-281L258-251L212-248C178-246 175-239 175-176L175 13C223-10 267-21 308-21C459-21 556 121 556 242C556 252 555 261 554 271C552 401 455 477 354 477C287 477 219 443 175 369L175 465L166 469C115 448 63 434 10 428M313 404C407 404 467 338 467 234C467 122 400 39 310 39C255 39 214 57 175 98L175 306C175 337 222 404 313 404Z" transform="translate(2623,0)"/><path d="M23 400L60 400C100 400 104 393 104 327L104 102C104 39 101 32 67 30L21 27L21-3C93-1 119 0 144 0C164 0 164 0 287-3L287 27L235 30C190 33 188 36 188 102L188 274C188 334 228 384 277 384C307 384 328 370 344 338L365 338L374 458C363 465 345 469 327 469C297 469 265 453 244 428L188 362L188 465L179 469C128 448 76 434 23 428Z" transform="translate(3223,0)"/><path d="M279 469C133 469 32 366 32 217C32 76 121-20 250-20C404-20 514 87 514 237C514 372 416 469 279 469M261 436C353 436 421 336 421 200C421 85 370 13 289 13C191 13 125 109 125 251C125 371 173 436 261 436Z" transform="translate(3617,0)"/><path d="M539 431L539 459C479 457 461 456 445 456C429 456 411 457 351 459L351 431L392 429C408 428 416 419 416 403C416 387 409 360 397 330C385 301 331 167 293 84L174 372C168 386 165 399 165 410C165 421 174 428 190 429L239 431L239 459C141 456 141 456 122 456C103 456 55 457 6 459L6 431L40 429C55 427 60 421 71 396L243-7L293-7L452 362C474 409 488 427 508 429Z" transform="translate(4162,0)"/><path d="M250-20C315-20 405 18 417 36L437 70L424 80C360 42 337 33 294 33C229 33 175 62 147 111C128 144 121 172 119 230C140 227 170 226 204 226C290 226 399 234 446 244C447 258 448 267 448 279C448 394 374 469 262 469C225 469 180 464 140 440C58 392 26 323 26 219C26 25 161-20 250-20M359 267C335 264 284 261 233 261C190 261 147 264 121 270C121 317 125 339 138 365C159 409 202 436 250 436C283 436 309 423 327 396C349 363 356 334 359 267Z" transform="translate(4726,0)"/><path d="M579-3L579 27L533 30C499 32 496 39 496 102L496 718L487 726C443 709 410 701 331 689L331 661L387 661C405 661 412 650 412 620L412 437C384 472 346 486 306 486C183 486 34 351 34 229C34 149 62 70 111 30C145 1 192-12 257-12C277-12 300-8 305-4L416 89L411-3C460-1 476 0 488 0C506 0 570-3 579-3M412 350L412 221C412 156 410 146 397 123C369 76 320 45 273 45C185 45 122 130 122 249C122 358 176 422 266 422C345 422 412 366 412 350Z" transform="translate(5204,0)"/><path d="" transform="translate(5814,0)"/></g><g transform="translate(6229.7,0)"><g><g transform="translate(0 95)"><path d="M788 13L772-310L62-310L420 133L66 620L754 620L768 346L732 346C718 428 694 486 662 522C626 559 572 578 498 578L246 578L524 194L214-205L512-205C592-205 648-190 680-162C714-132 734-74 746 13Z"/></g><g transform="translate(883,442.1) scale(0.707)"><g><path d="M843 284C843 380 792 461 687 461C600 461 516 378 463 315C419 387 334 463 245 463C129 463 55 352 55 244C55 148 109 66 213 66C296 66 389 152 436 216C485 143 561 65 655 65C771 65 843 179 843 284M783 236C783 166 748 108 673 108C594 108 522 226 481 284C513 332 597 409 656 409C740 409 783 307 783 236M418 245C387 198 301 122 243 122C159 122 117 224 117 296C117 366 153 424 229 424C300 424 387 304 418 245Z"/></g></g><g transform="translate(883,-250.4) scale(0.707)"><g><path d="M24 388L31 368L63 389C100 412 103 414 110 414C121 414 128 404 128 389C128 338 87 145 46 2L53-9C78-2 101 4 123 8C142 134 163 199 209 268C263 352 338 414 383 414C394 414 400 405 400 390C400 372 397 351 389 319L337 107C328 70 324 47 324 31C324 6 335-9 354-9C380-9 416 12 514 85L504 103L478 86C449 67 427 56 417 56C410 56 404 65 404 76C404 81 405 92 406 96L472 372C479 401 483 429 483 446C483 469 472 482 452 482C410 482 341 444 282 389C244 354 216 320 164 247L202 408C206 426 208 438 208 449C208 470 200 482 185 482C164 482 125 460 52 408Z"/></g><g transform="translate(555,0)"><path d="M604 347L604 406L65 406L65 347M604 134L604 193L65 193L65 134Z"/></g><g transform="translate(1223,0)"><path d="M362-3L362 27L310 30C255 33 245 44 245 96L245 700L4 598L11 548L161 614L161 96C161 44 150 33 96 30L40 27L40-3C194 0 194 0 205 0C236 0 346-3 362-3Z"/></g></g></g><g transform="translate(2277.7,0)"><g transform="translate(413.7,394) scale(0.707)"><path d="M362-3L362 27L310 30C255 33 245 44 245 96L245 700L4 598L11 548L161 614L161 96C161 44 150 33 96 30L40 27L40-3C194 0 194 0 205 0C236 0 346-3 362-3Z"/></g><g transform="translate(220,-388.9) scale(0.707)"><g><path d="M24 388L31 368L63 389C100 412 103 414 110 414C121 414 128 404 128 389C128 338 87 145 46 2L53-9C78-2 101 4 123 8C142 134 163 199 209 268C263 352 338 414 383 414C394 414 400 405 400 390C400 372 397 351 389 319L337 107C328 70 324 47 324 31C324 6 335-9 354-9C380-9 416 12 514 85L504 103L478 86C449 67 427 56 417 56C410 56 404 65 404 76C404 81 405 92 406 96L472 372C479 401 483 429 483 446C483 469 472 482 452 482C410 482 341 444 282 389C244 354 216 320 164 247L202 408C206 426 208 438 208 449C208 470 200 482 185 482C164 482 125 460 52 408Z"/></g><g transform="translate(588,289) scale(0.707)"><path d="M16 23L16-3C203-3 203 0 239 0C275 0 275-3 468-3L468 82C353 77 307 81 122 77L304 270C401 373 431 428 431 503C431 618 353 689 226 689C154 689 105 669 56 619L39 483L68 483L81 529C97 587 133 612 200 612C286 612 341 558 341 473C341 398 299 324 186 204Z"/></g></g><rect width="900.6" height="60" x="120" y="220"/></g><g transform="translate(3696.1,0)"><path d="M604 347L604 406L65 406L65 347M604 134L604 193L65 193L65 134Z"/></g><g transform="translate(4641.9,0)"><g transform="translate(220,394) scale(0.707)"><g><path d="M525 42C469 42 464 125 465 166C466 251 494 333 537 405L599 418C602 435 608 452 613 467C459 461 300 463 145 466C80 467 66 389 47 340C46 332 59 331 63 328L63 332C106 395 130 405 205 405L228 405C188 266 161 129 98-2L98-12C118-6 153 1 170 13C211 141 240 274 268 405L495 405C438 318 397 213 395 108C395 59 410-15 471-15C512-15 568 25 598 51L598 66L586 66L586 67C568 56 548 42 525 42Z"/></g><g transform="translate(686,363) scale(0.707)"><path d="M16 23L16-3C203-3 203 0 239 0C275 0 275-3 468-3L468 82C353 77 307 81 122 77L304 270C401 373 431 428 431 503C431 618 353 689 226 689C154 689 105 669 56 619L39 483L68 483L81 529C97 587 133 612 200 612C286 612 341 558 341 473C341 398 299 324 186 204Z"/></g></g><g transform="translate(428.5,-345) scale(0.707)"><path d="M131 331C152 512 241 611 421 665L379 689C283 657 242 637 191 593C88 506 32 384 32 247C32 82 112-20 241-20C371-20 468 83 468 219C468 334 399 409 293 409C216 409 184 370 131 331M255 349C331 349 382 283 382 184C382 80 331 13 254 13C169 13 123 86 123 220C123 255 127 274 138 291C160 325 207 349 255 349Z"/></g><rect width="969.9" height="60" x="120" y="220"/></g></g></g></g></svg>