<svg fill="currentColor" style="vertical-align: -0.82ex;" xmlns="http://www.w3.org/2000/svg" width="25.934ex" height="2.885ex" viewBox="0 -995.2 12500.4 1390.4"><g stroke="currentColor" stroke-width="0" transform="scale(1,-1)"><g><g><path d="M572 164L537 164L532 130C526 87 513 56 499 51C478 44 405 39 315 39C263 39 245 41 216 47L216 327L376 330C420 330 439 326 446 293C450 271 451 234 451 234L481 234L478 345L481 461L451 461C451 461 451 428 446 409C438 375 419 371 376 371C326 371 260 372 216 375L216 642C247 649 264 650 333 650C390 650 446 645 478 636C502 629 505 625 505 602L505 537L540 537C540 597 545 645 556 689L432 692L200 689L22 692L22 662L70 659C116 656 121 648 121 569L121 120C121 41 117 34 70 30L34 27L34-3L157 0L389-3L556 0C556 58 562 112 572 164Z"/><path d="M581-3L581 27L540 30C506 32 503 38 503 102L503 465L494 469C443 448 391 434 338 428L338 400L375 400C415 400 419 393 419 327L419 164C419 142 405 114 382 91C354 63 322 49 283 49C248 49 220 60 204 79C190 95 183 126 183 170L183 465L174 469C123 448 71 434 18 428L18 400L55 400C95 400 99 393 99 327L99 159C99 89 105 58 123 33C145 3 183-12 240-12C285-12 325 2 352 27L419 89C419 60 418 44 415-3C443-1 470 0 498 0C526 0 553-1 581-3Z" transform="translate(611,0)"/><path d="M271-3L271 27L225 30C191 32 188 39 188 102L188 718L179 726C135 709 102 701 23 689L23 661L79 661C97 661 104 650 104 620L104 102C104 39 101 32 67 30L21 27L21-3L146 0Z" transform="translate(1214,0)"/><path d="M448 279C448 394 374 469 262 469C225 469 182 456 141 432C59 385 26 323 26 219C26 156 40 102 68 64C107 11 175-20 250-20C287-20 324-12 365 6C392 17 413 30 417 36L437 70L424 80C360 42 337 33 294 33C229 33 175 62 147 111C128 144 121 172 119 230L265 230C334 230 377 233 446 244C447 258 448 267 448 279M359 267L247 264C201 264 175 265 121 270C121 317 125 339 138 365C159 409 202 436 250 436C283 436 309 423 327 396C349 363 359 334 359 267Z" transform="translate(1505,0)"/><path d="M374 458C363 465 345 469 327 469C297 469 265 453 244 428L188 362L188 465L179 469C128 448 76 434 23 428L23 400L60 400C100 400 104 393 104 327L104 102C104 39 101 32 67 30L21 27L21-3L144 0L287-3L287 27L235 30C190 33 188 36 188 102L188 274C188 334 228 384 277 384C307 384 328 370 344 338L365 338Z" transform="translate(1984,0)"/><path d="" transform="translate(2379,0)"/><path d="M554 271C554 382 462 469 346 469C309 469 273 459 257 444L175 369L175 465L166 469C115 448 63 434 10 428L10 400L47 400C87 400 91 393 91 327L91-176C91-239 88-246 54-248L8-251L8-281L133-278L258-281L258-251L212-248C178-246 175-239 175-176L175 13C205-5 237-12 282-12C311-12 337-6 353 4L467 78C507 104 554 207 554 271M467 234C467 122 400 39 310 39C255 39 214 57 175 98L175 306C175 320 180 331 193 348C222 385 263 404 313 404C407 404 467 338 467 234Z" transform="translate(2629,0)"/><path d="M374 458C363 465 345 469 327 469C297 469 265 453 244 428L188 362L188 465L179 469C128 448 76 434 23 428L23 400L60 400C100 400 104 393 104 327L104 102C104 39 101 32 67 30L21 27L21-3L144 0L287-3L287 27L235 30C190 33 188 36 188 102L188 274C188 334 228 384 277 384C307 384 328 370 344 338L365 338Z" transform="translate(3230,0)"/><path d="M514 237C514 372 416 469 279 469C133 469 32 366 32 217C32 76 121-20 250-20C404-20 514 87 514 237M421 200C421 85 370 13 289 13C191 13 125 109 125 251C125 371 173 436 261 436C353 436 421 336 421 200Z" transform="translate(3625,0)"/><path d="M539 431L539 459C508 457 476 456 445 456C414 456 382 457 351 459L351 431L392 429C424 427 424 398 397 330L355 224L293 84L174 372C163 400 158 428 190 429L239 431L239 459L122 456L6 459L6 431L40 429C58 428 61 419 71 396L243-7L293-7C299 26 314 57 334 102L452 362C475 413 488 428 508 429Z" transform="translate(4171,0)"/><path d="M448 279C448 394 374 469 262 469C225 469 182 456 141 432C59 385 26 323 26 219C26 156 40 102 68 64C107 11 175-20 250-20C287-20 324-12 365 6C392 17 413 30 417 36L437 70L424 80C360 42 337 33 294 33C229 33 175 62 147 111C128 144 121 172 119 230L265 230C334 230 377 233 446 244C447 258 448 267 448 279M359 267L247 264C201 264 175 265 121 270C121 317 125 339 138 365C159 409 202 436 250 436C283 436 309 423 327 396C349 363 359 334 359 267Z" transform="translate(4736,0)"/><path d="M579-3L579 27L533 30C499 32 496 39 496 102L496 718L487 726C443 709 410 701 331 689L331 661L387 661C405 661 412 650 412 620L412 437C356 461 328 469 293 469C266 469 242 463 217 450L129 404C72 374 35 301 35 216C35 136 62 70 111 30C145 1 192-12 257-12C277-12 300-8 305-4L416 89L411-3C437-1 462 0 488 0C518 0 549-1 579-3M412 221C412 156 410 146 397 123C369 76 320 45 273 45C185 45 122 130 122 249C122 358 176 422 266 422C304 422 344 409 379 385C400 371 412 358 412 350Z" transform="translate(5215,0)"/><path d="" transform="translate(5826,0)"/></g><g transform="translate(6242.7,0)"><g><g><path d="M903-17L866-17L860-78C852-150 837-156 625-156L189-156L509 283L217 703L566 703C756 703 785 694 788 652L795 575L831 575C829 615 828 635 828 663C828 691 829 710 831 750L329 747L84 750L80 719L414 240L80-220L80-250L533-247L896-250C896-157 897-75 903-17Z"/></g><g transform="translate(1016,477.1) scale(0.707)"><g><path d="M863 262C863 357 788 435 693 435C605 435 540 370 488 296C435 373 369 443 278 443C167 443 80 350 80 238C80 141 163 65 262 65C347 65 406 131 455 204C505 128 565 57 652 57C769 57 863 148 863 262M441 226C400 164 352 108 281 108C190 108 113 174 113 262C113 331 171 384 240 384C330 384 392 304 441 226M830 238C830 167 763 116 690 116C603 116 549 199 502 274C546 337 600 392 675 392C760 392 830 324 830 238Z"/></g></g><g transform="translate(1016,-285.4) scale(0.707)"><g><path d="M514 85L504 103L478 86C449 67 427 56 417 56C410 56 404 65 404 76C404 81 405 92 406 96L472 372C479 401 483 429 483 446C483 469 472 482 452 482C410 482 341 444 282 389C244 354 216 320 164 247L202 408C206 426 208 438 208 449C208 470 200 482 185 482C164 482 125 460 52 408L24 388L31 368L63 389C99 413 103 414 110 414C121 414 128 404 128 389C128 338 87 145 46 2L53-9C78-2 101 4 123 8C142 134 164 199 209 268C264 352 338 414 383 414C394 414 400 405 400 390C400 372 397 351 389 319L337 107C328 70 324 47 324 31C324 6 335-9 354-9C380-9 416 12 514 85Z"/></g><g transform="translate(556,0)"><path d="M680 330C678 340 677 350 677 360C677 370 678 380 680 390L80 390C82 380 83 370 83 360C83 350 82 340 80 330M680 110C678 120 677 130 677 140C677 150 678 160 680 170L80 170C82 160 83 150 83 140C83 130 82 120 80 110Z"/></g><g transform="translate(1316,0)"><path d="M418-3L418 27L366 30C311 33 301 44 301 96L301 689L287 694C222 660 151 630 60 598L67 555L77 555L206 613L209 614C215 614 217 605 217 581L217 96C217 44 206 33 152 30L96 27L96-3L261 0Z"/></g></g></g><g transform="translate(2516.8,0)"><g transform="translate(394.1,394) scale(0.707)"><path d="M418-3L418 27L366 30C311 33 301 44 301 96L301 689L287 694C222 660 151 630 60 598L67 555L77 555L206 613L209 614C215 614 217 605 217 581L217 96C217 44 206 33 152 30L96 27L96-3L261 0Z"/></g><g transform="translate(220,-388.9) scale(0.707)"><g><path d="M514 85L504 103L478 86C449 67 427 56 417 56C410 56 404 65 404 76C404 81 405 92 406 96L472 372C479 401 483 429 483 446C483 469 472 482 452 482C410 482 341 444 282 389C244 354 216 320 164 247L202 408C206 426 208 438 208 449C208 470 200 482 185 482C164 482 125 460 52 408L24 388L31 368L63 389C99 413 103 414 110 414C121 414 128 404 128 389C128 338 87 145 46 2L53-9C78-2 101 4 123 8C142 134 164 199 209 268C264 352 338 414 383 414C394 414 400 405 400 390C400 372 397 351 389 319L337 107C328 70 324 47 324 31C324 6 335-9 354-9C380-9 416 12 514 85Z"/></g><g transform="translate(589,289) scale(0.707)"><path d="M468-3C466 18 466 28 466 42C466 55 466 65 468 87L122 77L304 270C401 373 431 428 431 503C431 618 353 689 226 689C154 689 105 669 56 619L39 483L68 483L81 529C97 587 133 612 200 612C286 612 341 558 341 473C341 398 299 324 186 204L16 23L16-3L239 0Z"/></g></g><rect width="901.8" height="60" x="120" y="220"/></g><g transform="translate(3936.4,0)"><path d="M680 330C678 340 677 350 677 360C677 370 678 380 680 390L80 390C82 380 83 370 83 360C83 350 82 340 80 330M680 110C678 120 677 130 677 140C677 150 678 160 680 170L80 170C82 160 83 150 83 140C83 130 82 120 80 110Z"/></g><g transform="translate(4974.2,0)"><g transform="translate(220,394) scale(0.707)"><g><path d="M705 481L698 493C671 484 626 474 593 474C581 473 555 472 530 472L215 481C140 481 112 448 83 361L96 353L106 360C127 420 167 423 224 423C236 423 254 422 275 422C189 194 150 125 68-2L77-11L150 15C187 93 250 245 307 421L493 414C475 352 415 171 415 107C413 2 452-11 483-11C534-11 562 2 627 55L619 74L594 57C597 59 568 36 551 36C504 36 490 65 491 127C491 152 493 179 499 208L545 414C568 414 591 415 614 418C632 418 654 428 669 434C682 455 686 457 705 481Z"/></g><g transform="translate(789.4,363) scale(0.707)"><path d="M468-3C466 18 466 28 466 42C466 55 466 65 468 87L122 77L304 270C401 373 431 428 431 503C431 618 353 689 226 689C154 689 105 669 56 619L39 483L68 483L81 529C97 587 133 612 200 612C286 612 341 558 341 473C341 398 299 324 186 204L16 23L16-3L239 0Z"/></g></g><g transform="translate(465,-345) scale(0.707)"><path d="M468 219C468 334 399 409 293 409C234 409 197 385 131 331C152 512 236 610 416 664L416 672L379 689C283 657 242 637 191 593C88 506 32 384 32 247C32 82 112-20 241-20C371-20 468 83 468 219M382 184C382 80 331 13 254 13C169 13 123 86 123 220C123 255 127 274 138 291C160 325 207 349 255 349C331 349 382 283 382 184Z"/></g><rect width="1043.5" height="60" x="120" y="220"/></g></g></g></g></svg>