<svg fill="currentColor" style="vertical-align: -0.792ex;" xmlns="http://www.w3.org/2000/svg" width="22.418ex" height="2.692ex" viewBox="0 -1001.2 11814.1 1418.5"><g stroke="currentColor" stroke-width="0" transform="scale(1,-1)"><g><g><path d="M473 689L100 689L100 0L481 0L481 76L195 76L195 312L427 312L427 388L195 388L195 613L462 613Z"/><path d="M487 527L395 527L395 151C363 98 320 60 263 60C206 60 182 87 182 159L182 527L90 527L90 149C90 46 145-12 237-12C312-12 361 18 401 82L408 0L487 0Z" transform="translate(535,0)"/><path d="M200-12C227-12 253-5 273 6L249 70C239 66 228 64 215 64C191 64 182 78 182 106L182 750L90 739L90 104C90 29 133-12 200-12Z" transform="translate(1117,0)"/><path d="M402 300L155 300C162 417 208 466 278 466C361 466 402 409 402 306M493 279C493 440 418 539 276 539C140 539 57 422 57 258C57 91 143-12 290-12C363-12 422 13 474 54L434 109C388 77 349 63 297 63C221 63 164 110 155 232L491 232C492 244 493 261 493 279Z" transform="translate(1410,0)"/><path d="M324 539C260 539 211 499 183 420L174 527L95 527L95 0L187 0L187 301C209 402 247 449 313 449C332 449 343 447 359 443L376 533C360 537 341 539 324 539Z" transform="translate(1955,0)"/><path d="" transform="translate(2341,0)"/><path d="M303 63C255 63 214 86 187 127L187 384C215 426 258 466 314 466C393 466 433 401 433 264C433 126 387 63 303 63M337 539C277 539 220 510 181 456L174 527L95 527L95-213L187-202L187 48C221 7 268-12 325-12C461-12 532 104 532 264C532 430 477 539 337 539Z" transform="translate(2606,0)"/><path d="M324 539C260 539 211 499 183 420L174 527L95 527L95 0L187 0L187 301C209 402 247 449 313 449C332 449 343 447 359 443L376 533C360 537 341 539 324 539Z" transform="translate(3200,0)"/><path d="M293 465C380 465 428 401 428 264C428 126 380 62 292 62C204 62 156 126 156 263C156 401 205 465 293 465M293 539C143 539 57 426 57 263C57 96 142-12 292-12C441-12 527 101 527 264C527 431 443 539 293 539Z" transform="translate(3586,0)"/><path d="M482 527L385 527L248 82L110 527L10 527L192 0L303 0Z" transform="translate(4170,0)"/><path d="M402 300L155 300C162 417 208 466 278 466C361 466 402 409 402 306M493 279C493 440 418 539 276 539C140 539 57 422 57 258C57 91 143-12 290-12C363-12 422 13 474 54L434 109C388 77 349 63 297 63C221 63 164 110 155 232L491 232C492 244 493 261 493 279Z" transform="translate(4662,0)"/><path d="M281 61C205 61 161 124 161 263C161 400 210 466 289 466C341 466 378 439 411 397L411 139C376 90 340 61 281 61M411 750L411 474C376 511 331 539 269 539C140 539 62 422 62 261C62 97 133-12 261-12C326-12 379 20 413 73L422 0L503 0L503 739Z" transform="translate(5207,0)"/><path d="" transform="translate(5805,0)"/></g><g transform="translate(6236.7,0)"><g><g transform="translate(0 -30)"><path d="M56-75L56-151L629-151L629-75L163-75L417 251L417 309L163 635L629 635L629 711L56 711L56 635L330 280Z"/></g><g transform="translate(718,408.1) scale(0.707)"><g><path d="M642 147C556 147 509 228 485 275C526 353 567 411 642 411C704 411 747 363 747 279C747 194 703 147 642 147M253 148C191 148 148 196 148 280C148 365 192 412 253 412C338 412 385 332 409 285C371 208 329 148 253 148M643 487C553 487 493 437 448 360C404 437 333 487 253 487C119 487 55 391 55 280C55 170 118 72 252 72C344 72 404 124 447 199C491 123 562 72 642 72C776 72 840 168 840 279C840 389 777 487 643 487Z"/></g></g><g transform="translate(718,-253.2) scale(0.707)"><g><path d="M384 539C308 539 250 493 201 424L209 527L131 527L57 0L148 0L192 316C234 391 292 462 359 462C399 462 425 442 415 368L363 0L454 0L506 370C521 475 472 539 384 539Z"/></g><g transform="translate(580,0)"><path d="M62 146L438 146L438 222L62 222M62 338L438 338L438 414L62 414Z"/></g><g transform="translate(1080,0)"><path d="M276 0L368 0L368 689L287 689L80 561L120 496L276 591Z"/></g></g></g><g transform="translate(2094.3,0)"><g transform="translate(396.4,394) scale(0.707)"><path d="M276 0L368 0L368 689L287 689L80 561L120 496L276 591Z"/></g><g transform="translate(220,-417.4) scale(0.707)"><g><path d="M384 539C308 539 250 493 201 424L209 527L131 527L57 0L148 0L192 316C234 391 292 462 359 462C399 462 425 442 415 368L363 0L454 0L506 370C521 475 472 539 384 539Z"/></g><g transform="translate(613,289) scale(0.707)"><path d="M258 701C163 701 99 667 45 600L107 552C150 603 187 625 253 625C328 625 373 579 373 504C373 395 315 319 59 73L59 0L474 0L485 77L164 77C389 282 469 383 469 508C469 617 391 701 258 701Z"/></g></g><rect width="948.8" height="75" x="120" y="212.5"/></g><g transform="translate(3560.9,0)"><path d="M62 146L438 146L438 222L62 222M62 338L438 338L438 414L62 414Z"/></g><g transform="translate(4338.7,0)"><g transform="translate(220,394) scale(0.707)"><g><path d="M498 452L590 452L600 527L175 527C118 527 79 523 46 511L58 441C85 447 105 451 138 452L75 0L166 0L229 452L407 452L362 134C351 53 374 14 451-11L489 55C455 70 446 86 453 138Z"/></g><g transform="translate(683.6,363) scale(0.707)"><path d="M258 701C163 701 99 667 45 600L107 552C150 603 187 625 253 625C328 625 373 579 373 504C373 395 315 319 59 73L59 0L474 0L485 77L164 77C389 282 469 383 469 508C469 617 391 701 258 701Z"/></g></g><g transform="translate(421.4,-358.2) scale(0.707)"><path d="M292 61C200 61 160 131 157 284C191 340 241 377 301 377C368 377 415 340 415 229C415 126 373 61 292 61M317 450C254 450 200 423 156 361C160 524 220 628 320 628C357 628 392 618 423 599L459 660C420 686 375 701 321 701C160 701 63 553 63 324C63 122 126-12 292-12C412-12 509 81 509 232C509 379 420 450 317 450Z"/></g><rect width="998.8" height="75" x="120" y="212.5"/></g></g></g></g></svg>