<svg fill="currentColor" style="vertical-align: -0.871ex;" xmlns="http://www.w3.org/2000/svg" width="28.166ex" height="3.097ex" viewBox="0 -983.7 12449.5 1368.8"><g stroke="currentColor" stroke-width="0" transform="scale(1,-1)"><g><g><path d="M230 74L230 334L315 334C360 334 388 326 400 311C412 296 418 265 418 218L451 218L451 488L418 488C418 441 412 411 400 396C388 381 360 373 315 373L230 373L230 606C230 642 236 641 275 641L402 641C474 641 522 627 547 598C579 559 583 523 592 450L625 450L596 680L33 680L33 641L61 641C96 641 117 639 124 634C131 629 135 617 135 599L135 81C135 63 131 51 124 46C117 41 96 39 61 39L33 39L33 0L610 0L653 263L620 263C611 208 602 166 591 136C580 106 560 82 530 63C505 47 464 39 406 39L275 39C236 39 230 38 230 74Z"/><path d="M267 18C198 18 185 47 185 112L185 442L32 431L32 393C71 393 94 389 100 382C106 375 109 350 109 306L109 159C109 120 112 90 119 67C134 15 189-11 262-11C316-11 357 14 385 65L385-11L535 0L535 38C499 38 478 40 470 46C462 52 458 66 458 89L458 442L306 431L306 393C341 393 362 390 370 384C378 378 382 365 382 342L382 167C382 88 340 18 267 18Z" transform="translate(681,0)"/><path d="M144 3L255 0L255 39C219 39 197 40 190 44C183 48 180 60 180 79L180 694L33 683L33 645C68 645 90 642 97 636C104 630 108 616 108 593L108 79C108 60 105 48 98 44C91 40 69 39 33 39L33 0Z" transform="translate(1237,0)"/><path d="M415 251C415 366 348 448 236 448C176 448 126 425 85 378C47 334 28 281 28 220C28 157 49 104 91 58C133 12 185-11 247-11C304-11 348 9 378 48C403 81 415 105 415 121C415 131 409 136 398 136C390 136 385 131 382 120C360 54 317 21 253 21C208 21 173 42 146 85C127 116 118 163 117 227L387 227C409 227 415 229 415 251M326 349C337 316 342 284 342 255L118 255C121 321 138 366 168 389C193 409 215 419 236 419C281 419 311 396 326 349Z" transform="translate(1515,0)"/><path d="M364 378C364 417 327 442 288 442C237 442 198 412 172 351L172 442L28 431L28 393C63 393 84 390 92 384C100 378 104 365 104 342L104 79C104 60 101 48 94 44C87 40 65 38 28 38L28 0L143 3C185 4 228 3 271 0L271 38L247 38C214 38 193 41 186 46C179 51 176 63 176 81L176 232C176 275 184 314 199 347C219 390 248 412 287 413C277 403 272 391 272 377C272 346 287 331 318 331C345 331 364 352 364 378Z" transform="translate(1959,0)"/><path d="" transform="translate(2351,0)"/><path d="M298-13C360-13 413 9 456 54C499 99 521 152 521 215C521 276 501 328 462 372C421 419 371 442 311 442C260 442 216 422 178 383L178 442L28 431L28 393C65 393 87 391 94 386C101 381 105 368 105 347L105-115C105-134 101-146 94-150C87-154 65-155 28-155L28-194L142-191L257-194L257-155C220-155 199-154 192-150C185-146 181-134 181-115L181 44C203 13 246-13 298-13M304 409C345 409 377 386 402 340C421 301 431 260 431 215C431 168 420 125 398 86C372 39 337 16 294 16C252 16 219 36 194 75C185 88 181 101 181 114L181 333C210 384 251 409 304 409Z" transform="translate(2683,0)"/><path d="M364 378C364 417 327 442 288 442C237 442 198 412 172 351L172 442L28 431L28 393C63 393 84 390 92 384C100 378 104 365 104 342L104 79C104 60 101 48 94 44C87 40 65 38 28 38L28 0L143 3C185 4 228 3 271 0L271 38L247 38C214 38 193 41 186 46C179 51 176 63 176 81L176 232C176 275 184 314 199 347C219 390 248 412 287 413C277 403 272 391 272 377C272 346 287 331 318 331C345 331 364 352 364 378Z" transform="translate(3239,0)"/><path d="M249-11C311-11 363 11 406 55C449 99 471 152 471 214C471 277 450 332 408 378C366 424 313 448 250 448C187 448 135 424 92 378C49 332 28 277 28 214C28 152 49 99 92 55C135 11 188-11 249-11M250 21C202 21 166 42 141 85C125 113 117 159 117 222C117 283 125 327 140 355C164 398 200 419 249 419C296 419 332 398 357 357C374 329 382 284 382 222C382 106 348 21 250 21Z" transform="translate(3631,0)"/><path d="M388 354C388 349 386 342 382 332L286 91L179 356C175 365 173 370 173 371C173 386 192 393 230 393L230 431L118 428C94 427 61 428 19 431L19 393C75 393 84 395 98 359L240 10C245-4 253-11 264-11C275-11 283-4 288 10L417 329C421 340 425 349 430 357C444 381 470 393 508 393L508 431C475 428 449 427 430 428L341 431L341 393C370 392 388 380 388 354Z" transform="translate(4131,0)"/><path d="M415 251C415 366 348 448 236 448C176 448 126 425 85 378C47 334 28 281 28 220C28 157 49 104 91 58C133 12 185-11 247-11C304-11 348 9 378 48C403 81 415 105 415 121C415 131 409 136 398 136C390 136 385 131 382 120C360 54 317 21 253 21C208 21 173 42 146 85C127 116 118 163 117 227L387 227C409 227 415 229 415 251M326 349C337 316 342 284 342 255L118 255C121 321 138 366 168 389C193 409 215 419 236 419C281 419 311 396 326 349Z" transform="translate(4659,0)"/><path d="M374-11L527 0L527 38C491 38 470 40 462 46C454 52 450 67 450 90L450 694L301 683L301 645C336 645 358 642 366 636C374 630 377 616 377 593L377 390C345 427 305 445 257 445C195 445 142 423 99 378C56 333 34 279 34 216C34 155 54 102 95 57C136 12 186-11 247-11C298-11 341 8 374 47M261 415C304 415 339 396 364 358C371 347 374 336 374 323L374 121C374 108 371 97 364 86C336 41 298 19 251 19C210 19 177 39 151 80C133 110 124 155 124 215C124 324 161 415 261 415Z" transform="translate(5103,0)"/><path d="" transform="translate(5659,0)"/></g><g transform="translate(6157.7,0)"><g><g><path d="M56 713L417 216L67-217C60-225 57-231 57-235C57-245 67-250 88-250L913-250L1001 5L967 5C954-33 933-66 902-95C825-166 719-188 565-188L152-188L490 232C497 240 500 246 500 250C500 254 498 259 493 266L175 702L560 702C682 702 764 691 854 644C907 616 944 571 967 510L1001 510L913 750L88 750C57 750 56 746 56 713Z"/></g><g transform="translate(1089,477.1) scale(0.707)"><g><path d="M749-11C807-11 855 13 892 60C926 104 943 156 943 216C943 275 926 327 893 371C856 418 809 442 752 442C684 442 625 416 576 364C547 332 524 303 507 278C464 329 435 361 421 373C367 419 310 442 250 442C192 442 144 418 107 371C73 327 56 275 56 215C56 156 73 104 106 60C143 13 190-11 247-11C315-11 374 15 423 67C452 99 475 128 492 153C535 102 564 70 578 58C632 12 689-11 749-11M913 216C913 188 911 168 908 156C903 137 890 117 869 94C840 61 805 44 765 44C722 44 680 67 637 113C592 168 559 209 538 237C601 348 675 403 759 403C852 403 913 314 913 216M86 215C86 260 100 299 128 334C156 369 191 387 234 387C277 387 319 364 362 318C407 263 440 222 461 194C398 83 324 28 240 28C147 28 86 117 86 215Z"/></g></g><g transform="translate(1089,-285.4) scale(0.707)"><g><path d="M537 137C514 58 481 18 440 18C427 18 420 28 420 47C420 61 426 84 438 115C478 224 498 296 498 333C498 403 451 442 381 442C322 442 271 416 230 363C222 407 187 442 136 442C80 442 58 390 44 345C34 313 29 294 29 287C29 278 34 273 45 273C50 273 53 274 56 276C61 285 64 292 65 299C83 375 106 413 133 413C151 413 160 399 160 371C160 358 155 331 144 290L87 63C84 50 78 24 78 19C78-1 89-11 111-11C130-11 144-1 151 19C153 24 159 49 170 92L191 181L221 295C232 318 249 341 270 365C299 397 335 413 378 413C411 413 427 391 427 348C427 310 406 234 363 120C356 102 353 87 353 74C353 25 390-11 438-11C482-11 517 14 542 64C561 104 571 131 571 144C571 153 566 158 555 158C552 158 537 149 537 137Z"/></g><g transform="translate(600,0)"><path d="M698 367L80 367C64 367 56 359 56 344C56 329 64 321 80 321L698 321C714 321 722 329 722 344C722 356 711 367 698 367M698 179L80 179C64 179 56 171 56 156C56 141 64 133 80 133L698 133C714 133 722 141 722 156C722 169 711 179 698 179Z"/></g><g transform="translate(1378,0)"><path d="M269 666C228 624 168 603 89 603L89 564C141 564 184 572 217 588L217 82C217 64 213 52 204 47C195 42 170 39 130 39L95 39L95 0C120 2 174 3 257 3C340 3 394 2 419 0L419 39L384 39C343 39 318 42 310 47C302 52 297 64 297 82L297 636C297 660 295 666 269 666Z"/></g></g></g><g transform="translate(2633.6,0)"><g transform="translate(409.7,394) scale(0.707)"><path d="M269 666C228 624 168 603 89 603L89 564C141 564 184 572 217 588L217 82C217 64 213 52 204 47C195 42 170 39 130 39L95 39L95 0C120 2 174 3 257 3C340 3 394 2 419 0L419 39L384 39C343 39 318 42 310 47C302 52 297 64 297 82L297 636C297 660 295 666 269 666Z"/></g><g transform="translate(220,-377.4) scale(0.707)"><g><path d="M537 137C514 58 481 18 440 18C427 18 420 28 420 47C420 61 426 84 438 115C478 224 498 296 498 333C498 403 451 442 381 442C322 442 271 416 230 363C222 407 187 442 136 442C80 442 58 390 44 345C34 313 29 294 29 287C29 278 34 273 45 273C50 273 53 274 56 276C61 285 64 292 65 299C83 375 106 413 133 413C151 413 160 399 160 371C160 358 155 331 144 290L87 63C84 50 78 24 78 19C78-1 89-11 111-11C130-11 144-1 151 19C153 24 159 49 170 92L191 181L221 295C232 318 249 341 270 365C299 397 335 413 378 413C411 413 427 391 427 348C427 310 406 234 363 120C356 102 353 87 353 74C353 25 390-11 438-11C482-11 517 14 542 64C561 104 571 131 571 144C571 153 566 158 555 158C552 158 537 149 537 137Z"/></g><g transform="translate(633,289) scale(0.707)"><path d="M237 666C186 666 143 648 106 612C69 576 50 534 50 483C50 449 75 424 106 424C136 424 161 450 161 480C161 513 137 536 105 536C102 536 100 536 98 535C117 584 161 627 224 627C306 627 352 556 352 470C352 403 318 331 250 255L62 43C49 28 50 29 50 0L421 0L450 180L417 180C409 129 402 100 396 91C391 86 361 84 306 84L139 84L236 179C304 243 390 312 419 365C439 400 449 435 449 470C449 588 357 666 237 666Z"/></g></g><rect width="933" height="60" x="120" y="220"/></g><g transform="translate(4084.3,0)"><path d="M698 367L80 367C64 367 56 359 56 344C56 329 64 321 80 321L698 321C714 321 722 329 722 344C722 356 711 367 698 367M698 179L80 179C64 179 56 171 56 156C56 141 64 133 80 133L698 133C714 133 722 141 722 156C722 169 711 179 698 179Z"/></g><g transform="translate(5140.1,0)"><g transform="translate(220,394) scale(0.707)"><g><path d="M524 431L194 431C153 431 117 415 88 384C74 369 27 305 27 292C31 285 31 279 43 279C50 279 56 283 62 292C94 341 135 366 184 366L235 366C212 279 170 172 110 45C105 33 102 24 102 19C102-1 113-11 134-11C153-11 167 0 176 21C194 78 207 122 214 152L269 366L372 366C345 247 331 164 331 117C331 68 342-11 379-11C400-11 423 9 423 30C423 35 421 43 417 53C398 100 389 153 389 214C389 261 395 312 406 366L515 366C550 366 567 378 567 403C567 426 549 431 524 431Z"/></g><g transform="translate(603,363) scale(0.707)"><path d="M237 666C186 666 143 648 106 612C69 576 50 534 50 483C50 449 75 424 106 424C136 424 161 450 161 480C161 513 137 536 105 536C102 536 100 536 98 535C117 584 161 627 224 627C306 627 352 556 352 470C352 403 318 331 250 255L62 43C49 28 50 29 50 0L421 0L450 180L417 180C409 129 402 100 396 91C391 86 361 84 306 84L139 84L236 179C304 243 390 312 419 365C439 400 449 435 449 470C449 588 357 666 237 666Z"/></g></g><g transform="translate(399.1,-345) scale(0.707)"><path d="M383 504C416 504 432 521 432 555C432 627 378 666 304 666C221 666 155 627 106 548C63 480 42 403 42 316C42 189 65 100 112 47C152 1 198-22 251-22C312-22 362 1 401 47C438 91 457 144 457 205C457 266 439 318 403 361C365 407 316 431 257 431C205 431 165 402 138 346L138 352C138 465 166 561 226 605C252 624 279 633 306 633C342 633 368 623 385 602C351 602 334 583 334 553C334 525 355 504 383 504M344 340C355 317 361 272 361 206C361 141 356 98 345 76C325 35 294 14 251 14C222 14 200 24 184 44C171 60 162 74 158 85C146 116 140 163 140 227C140 255 144 282 151 308C164 355 201 399 256 399C295 399 325 379 344 340Z"/></g><rect width="911.7" height="60" x="120" y="220"/></g></g></g></g></svg>