<svg fill="currentColor" style="vertical-align: -0.871ex;" xmlns="http://www.w3.org/2000/svg" width="27.88ex" height="3.097ex" viewBox="0 -983.7 12323.1 1368.8"><g stroke="currentColor" stroke-width="0" transform="scale(1,-1)"><g><g><path d="M128 619L128 61C116 49 115 47 58 46L25 46L25 0L610 0L610 3C613 9 649 264 652 270L652 273L612 273L612 270C611 268 609 256 607 243C600 198 594 173 584 146C561 85 521 57 444 48C430 47 418 47 340 47L289 47C244 47 242 48 237 52C236 53 234 56 233 59C232 61 232 102 232 196L232 330L286 330C343 329 351 329 366 324C406 313 414 285 416 233L416 213L456 213L456 493L416 493L416 473C414 421 406 393 366 382C351 377 343 377 286 376L232 376L232 497C232 581 232 619 233 621C235 627 239 631 245 632C249 633 304 634 353 634C383 634 411 634 421 633C530 627 566 590 582 465C583 456 584 447 585 444L585 440L625 440L625 444C625 445 597 675 597 676L597 680L25 680L25 634L58 634C115 633 116 631 128 619Z"/><path d="M105 436C63 434 28 431 27 431C25 431 25 429 25 408L25 385L36 385C71 385 89 380 96 369C103 358 102 366 103 226C104 109 104 97 105 89C119 19 165-10 249-10C276-10 283-10 302-3C336 6 363 34 383 58L383-11L390-11C396-10 540 0 542 0L542 46L524 46C480 48 469 54 465 81C464 84 464 167 464 264L464 442L457 442C451 441 304 431 302 431L302 385L320 385C364 383 375 377 379 351C379 347 380 297 380 248C380 199 379 150 379 144C373 94 348 53 311 35C296 28 284 26 264 26C237 26 217 31 204 40C196 47 192 54 189 71C188 78 188 103 187 261L187 442L184 442C182 442 146 439 105 436Z" transform="translate(681,0)"/><path d="M42 46L26 46L26 0L34 0C47 3 122 3 145 3C168 3 243 2 255 0L263 0L263 46L247 46C227 46 205 48 198 49C193 51 188 56 186 60C185 62 185 159 185 379L185 694L182 694C180 694 145 691 104 688C63 686 29 683 28 683C26 683 26 681 26 660L26 637L44 637C88 635 99 629 103 603C103 598 104 463 104 329C104 195 103 62 103 60C96 47 80 46 56 46Z" transform="translate(1237,0)"/><path d="M415 245C415 370 353 448 229 448C223 448 219 448 215 447C113 434 28 344 28 218C28 192 32 169 40 145C66 67 130 9 206-6C221-9 236-11 250-11C335-11 389 45 412 108C414 114 415 118 415 121C415 129 409 131 395 131C382 131 382 131 379 128C377 126 375 122 373 114C366 94 356 76 342 62C323 41 307 30 270 30C209 30 167 61 146 104C133 129 126 168 126 216L126 231L408 231C412 235 415 235 415 245M333 275L333 267L127 267L127 274C131 314 139 341 153 363C173 392 199 411 238 411C248 410 251 410 259 407C307 390 327 346 333 275Z" transform="translate(1515,0)"/><path d="M36 46L20 46L20 0L28 0C42 3 116 3 140 3C164 3 255 2 267 0L276 0L276 46L245 46C213 47 200 48 192 51C187 52 182 57 180 61C180 63 179 107 179 154C179 201 180 250 180 260C184 318 201 362 226 386C234 393 242 397 250 401C257 403 272 406 273 405C273 404 272 402 271 400C266 393 263 382 263 372C263 342 285 322 313 322C340 322 364 343 364 373C364 401 345 420 325 430C309 439 302 441 277 441C221 441 195 409 174 373L174 442L171 442C169 442 135 439 96 436C56 434 23 431 22 431C20 431 20 429 20 408L20 385L38 385C82 383 93 377 97 351C97 346 98 274 98 203C98 132 97 62 97 60C90 47 74 46 50 46Z" transform="translate(1959,0)"/><path d="" transform="translate(2351,0)"/><path d="M36-148L20-148L20-194L28-194C41-191 117-191 140-191C163-191 239-191 252-194L260-194L260-148L244-148C224-148 202-146 195-145C190-143 185-138 183-134C182-132 182-103 182-45L182 40L190 33C224 4 266-11 310-11C330-11 351-8 372-1C452 30 506 94 520 181C521 189 522 202 522 216C522 335 449 421 358 439C348 441 343 441 326 441C267 441 224 423 188 397L180 390L179 416L179 442L176 442C174 442 139 439 98 436C57 434 23 431 22 431C20 431 20 429 20 408L20 385L38 385C82 383 93 377 97 351C97 346 98 226 98 106C98-14 97-132 97-134C90-147 74-148 50-148M424 218C424 157 405 99 370 63C347 38 322 26 294 26C241 26 205 58 182 98L182 337C210 372 244 402 305 402C310 402 315 401 319 401C377 391 424 311 424 218Z" transform="translate(2601,0)"/><path d="M36 46L20 46L20 0L28 0C42 3 116 3 140 3C164 3 255 2 267 0L276 0L276 46L245 46C213 47 200 48 192 51C187 52 182 57 180 61C180 63 179 107 179 154C179 201 180 250 180 260C184 318 201 362 226 386C234 393 242 397 250 401C257 403 272 406 273 405C273 404 272 402 271 400C266 393 263 382 263 372C263 342 285 322 313 322C340 322 364 343 364 373C364 401 345 420 325 430C309 439 302 441 277 441C221 441 195 409 174 373L174 442L171 442C169 442 135 439 96 436C56 434 23 431 22 431C20 431 20 429 20 408L20 385L38 385C82 383 93 377 97 351C97 346 98 274 98 203C98 132 97 62 97 60C90 47 74 46 50 46Z" transform="translate(3157,0)"/><path d="M28 214C28 110 97 21 197-4C216-9 227-10 250-10C272-10 283-9 302-4C386 17 450 84 466 168C469 184 471 199 471 215C471 278 443 342 401 384C360 425 305 448 250 448C242 448 233 447 225 446C120 433 28 338 28 214M268 410C323 398 355 368 367 313C372 290 372 280 372 225L372 193C372 98 342 30 250 30C197 30 164 55 145 91C128 127 126 163 126 226C126 254 127 281 128 290C136 347 155 379 195 399C213 407 233 411 252 411C257 411 263 411 268 410Z" transform="translate(3549,0)"/><path d="M338 431L331 431L331 385L335 385C355 385 377 372 377 349L377 341L286 102L235 234C194 340 184 367 184 370C186 379 200 384 226 385L240 385L240 431L232 431C222 429 143 428 122 428C102 428 35 428 25 431L19 431L19 385L43 385C80 383 89 384 98 364C99 359 239-2 239-2C243-9 248-11 263-11C279-11 284-9 288-2C293 9 419 338 423 345C435 370 462 383 497 385L508 385L508 431L503 431C491 430 456 429 422 429L386 429C365 429 343 429 338 431Z" transform="translate(4049,0)"/><path d="M415 245C415 370 353 448 229 448C223 448 219 448 215 447C113 434 28 344 28 218C28 192 32 169 40 145C66 67 130 9 206-6C221-9 236-11 250-11C335-11 389 45 412 108C414 114 415 118 415 121C415 129 409 131 395 131C382 131 382 131 379 128C377 126 375 122 373 114C366 94 356 76 342 62C323 41 307 30 270 30C209 30 167 61 146 104C133 129 126 168 126 216L126 231L408 231C412 235 415 235 415 245M333 275L333 267L127 267L127 274C131 314 139 341 153 363C173 392 199 411 238 411C248 410 251 410 259 407C307 390 327 346 333 275Z" transform="translate(4577,0)"/><path d="M244 442C131 442 34 347 34 215C34 201 34 188 35 180C44 121 70 72 111 36C141 10 183-11 235-11C289-11 332 9 365 37L373 44L373-11L380-11C386-10 533 0 535 0L535 46L517 46C473 48 462 54 458 81C457 84 457 223 457 390L457 694L454 694C452 694 417 691 376 688C335 686 301 683 300 683C298 683 298 681 298 660L298 637L316 637C360 635 371 629 375 603C376 599 376 551 376 495L376 393C343 421 298 442 244 442M373 342L373 103L369 97C343 53 297 26 251 26C216 26 193 38 173 59C140 91 131 139 131 211C131 288 138 333 173 369C197 392 227 405 260 405C314 405 348 377 373 342Z" transform="translate(5021,0)"/><path d="" transform="translate(5577,0)"/></g><g transform="translate(5993.7,0)"><g><g><path d="M61 748C57 745 56 742 56 728L57 717L242 462C344 322 428 207 428 206L245-11C144-131 60-230 59-232C57-235 56-237 56-239C56-242 59-247 62-248C65-250 111-250 489-250L913-249L999 6L959 6C953-9 944-30 936-43C899-101 840-144 767-165C721-178 672-184 598-187C583-188 471-188 362-188C254-188 149-188 149-187L330 27C430 145 512 243 513 244C516 248 515 253 511 259C510 261 187 705 183 709C183 710 243 710 319 710C442 710 605 709 620 708C690 703 736 696 777 682C859 656 929 596 959 517L979 516L999 516C995 529 979 571 954 640L913 750L489 750C75 750 64 750 61 748Z"/></g><g transform="translate(1089,477.1) scale(0.707)"><g><path d="M136 398C92 363 59 297 55 224L55 217C55 112 115 30 189 0C208-7 230-11 252-11C279-11 307-5 334 5C394 29 448 84 485 137L492 147L506 128C536 89 553 72 580 50C623 16 675-11 743-11C794-11 833 7 863 33C907 68 940 134 944 207L944 214C944 319 884 401 810 431C791 438 769 442 747 442C720 442 692 436 665 426C605 402 551 347 514 294L507 284L493 303C463 342 446 359 419 381C375 415 323 442 254 442C206 442 168 425 136 398M765 51C714 51 669 79 614 147C609 153 591 176 574 198L543 238C577 293 615 338 657 365C689 386 726 397 761 397C852 397 907 312 907 217C907 136 855 51 765 51M233 380C241 380 249 379 255 378C298 371 337 342 385 284C390 278 408 255 425 233L456 193C422 138 384 93 343 66C310 45 273 33 239 33C223 33 209 36 195 41C135 60 92 134 92 214C92 295 142 380 233 380Z"/></g></g><g transform="translate(1089,-285.4) scale(0.707)"><g><path d="M108-11C125-11 143-1 151 16C154 22 161 46 189 157L222 291L229 303C263 361 301 392 348 402C356 404 362 404 374 404C411 404 423 383 423 345C423 332 422 317 420 307C412 265 394 208 364 129C352 97 350 96 350 73C350 51 362 28 374 14C390 0 411-10 439-10C458-10 466-9 482-1C527 24 559 70 576 130C578 137 580 142 580 145C580 154 574 153 560 153C544 153 542 152 540 145C526 93 494 26 444 26C430 26 427 35 427 52C427 70 430 83 445 123C474 200 493 260 500 298C502 308 503 323 503 336C503 407 453 442 382 442C318 442 278 414 243 378L232 367C231 367 231 368 231 369C231 372 224 390 220 397C205 423 176 442 135 442C128 442 122 441 118 440C69 429 41 367 26 308C23 298 21 288 21 287C21 284 25 280 27 278L41 278C56 278 58 279 60 284C60 285 63 295 66 305C72 329 81 356 87 368C98 390 109 405 129 405C147 405 153 388 153 366C153 358 153 348 152 343C146 308 74 40 74 17C74-1 91-11 108-11Z"/></g><g transform="translate(600,0)"><path d="M56 347C56 335 62 330 72 327L390 327L708 328C715 332 722 336 722 347C722 358 715 363 707 367L70 367C62 363 56 358 56 347M56 153C56 142 62 137 70 133L707 133C715 137 722 142 722 153C722 165 714 168 708 173L72 173C62 170 56 165 56 153Z"/></g><g transform="translate(1378,0)"><path d="M416 0L427 0L427 46L401 46L368 46C338 46 317 47 303 61L302 361L302 660C296 665 298 666 285 666C276 666 275 666 273 663C268 658 251 645 242 640C205 617 158 604 102 602L83 602L83 556L102 556C140 557 176 564 205 575C209 577 212 578 213 578L213 61C206 56 201 50 189 49C178 47 143 46 114 46L88 46L88 0L100 0C117 3 225 3 257 3C289 3 399 3 416 0Z"/></g></g></g><g transform="translate(2633.6,0)"><g transform="translate(409.7,394) scale(0.707)"><path d="M416 0L427 0L427 46L401 46L368 46C338 46 317 47 303 61L302 361L302 660C296 665 298 666 285 666C276 666 275 666 273 663C268 658 251 645 242 640C205 617 158 604 102 602L83 602L83 556L102 556C140 557 176 564 205 575C209 577 212 578 213 578L213 61C206 56 201 50 189 49C178 47 143 46 114 46L88 46L88 0L100 0C117 3 225 3 257 3C289 3 399 3 416 0Z"/></g><g transform="translate(220,-377.4) scale(0.707)"><g><path d="M108-11C125-11 143-1 151 16C154 22 161 46 189 157L222 291L229 303C263 361 301 392 348 402C356 404 362 404 374 404C411 404 423 383 423 345C423 332 422 317 420 307C412 265 394 208 364 129C352 97 350 96 350 73C350 51 362 28 374 14C390 0 411-10 439-10C458-10 466-9 482-1C527 24 559 70 576 130C578 137 580 142 580 145C580 154 574 153 560 153C544 153 542 152 540 145C526 93 494 26 444 26C430 26 427 35 427 52C427 70 430 83 445 123C474 200 493 260 500 298C502 308 503 323 503 336C503 407 453 442 382 442C318 442 278 414 243 378L232 367C231 367 231 368 231 369C231 372 224 390 220 397C205 423 176 442 135 442C128 442 122 441 118 440C69 429 41 367 26 308C23 298 21 288 21 287C21 284 25 280 27 278L41 278C56 278 58 279 60 284C60 285 63 295 66 305C72 329 81 356 87 368C98 390 109 405 129 405C147 405 153 388 153 366C153 358 153 348 152 343C146 308 74 40 74 17C74-1 91-11 108-11Z"/></g><g transform="translate(633,289) scale(0.707)"><path d="M110 429C147 429 170 457 170 489C170 520 149 549 114 549C111 549 109 549 109 550C109 551 114 559 118 567C140 599 167 619 212 619C298 619 343 548 343 464C343 406 321 358 276 297C254 269 249 262 136 137C91 86 53 43 52 42C50 39 50 36 50 19L50 0L421 0L421 3C424 9 446 180 449 186L449 189L409 189L409 186C401 141 400 132 395 118C392 108 388 98 385 97C379 94 319 92 218 92L142 93L201 149C269 214 266 211 301 241C367 298 393 325 414 356C438 391 449 421 449 465C449 477 448 489 447 498C430 596 352 666 235 666C133 666 50 586 50 491C50 457 72 429 110 429Z"/></g></g><rect width="933" height="60" x="120" y="220"/></g><g transform="translate(4084.3,0)"><path d="M56 347C56 335 62 330 72 327L390 327L708 328C715 332 722 336 722 347C722 358 715 363 707 367L70 367C62 363 56 358 56 347M56 153C56 142 62 137 70 133L707 133C715 137 722 142 722 153C722 165 714 168 708 173L72 173C62 170 56 165 56 153Z"/></g><g transform="translate(5140.1,0)"><g transform="translate(220,394) scale(0.707)"><g><path d="M431 37C431 44 429 48 424 61C403 110 393 157 393 222C393 258 398 299 405 341L408 358L472 358C531 358 535 358 541 360C559 366 573 383 573 402C573 417 564 426 553 430C549 431 473 431 389 431C286 431 171 431 164 429C106 420 60 361 29 314C21 301 19 297 19 294C19 285 25 284 38 284C55 284 54 284 61 295C70 308 90 328 103 336C134 358 146 358 196 358L228 358L220 334C195 249 161 166 111 61L98 33L98 22C98 13 98 11 100 6C106-5 119-11 132-11C150-11 168 1 175 17C193 47 268 350 268 354L269 358L367 358C367 357 365 348 362 336C345 266 336 217 331 169C330 157 330 139 330 121C330 73 336 40 349 10C356-4 360-10 381-10C410-10 431 15 431 37Z"/></g><g transform="translate(656.1,363) scale(0.707)"><path d="M110 429C147 429 170 457 170 489C170 520 149 549 114 549C111 549 109 549 109 550C109 551 114 559 118 567C140 599 167 619 212 619C298 619 343 548 343 464C343 406 321 358 276 297C254 269 249 262 136 137C91 86 53 43 52 42C50 39 50 36 50 19L50 0L421 0L421 3C424 9 446 180 449 186L449 189L409 189L409 186C401 141 400 132 395 118C392 108 388 98 385 97C379 94 319 92 218 92L142 93L201 149C269 214 266 211 301 241C367 298 393 325 414 356C438 391 449 421 449 465C449 477 448 489 447 498C430 596 352 666 235 666C133 666 50 586 50 491C50 457 72 429 110 429Z"/></g></g><g transform="translate(417.9,-345) scale(0.707)"><path d="M373 601C345 596 326 581 326 548C326 514 348 495 379 495C411 495 432 516 432 550C432 622 380 666 303 666C258 666 220 652 186 628C96 569 42 459 42 313C42 210 61 124 101 61C129 19 172-10 219-19C229-21 241-22 253-22C267-22 281-21 293-18C330-10 359 7 389 38C423 73 443 108 451 149C455 165 456 174 456 192L456 210C456 261 450 282 435 317C415 357 380 396 348 414C322 428 300 433 267 433C211 433 180 408 156 373C153 368 149 360 148 360C148 360 147 361 147 364C147 456 163 523 194 566C222 602 255 626 311 626C337 624 357 617 373 601M329 361C351 331 352 289 352 225L352 209L352 193C352 130 351 90 329 59C311 34 287 21 251 21C204 21 172 56 160 93C154 110 148 164 148 216C148 287 166 343 197 374C213 390 233 397 257 397C292 397 311 384 329 361Z"/></g><rect width="949.3" height="60" x="120" y="220"/></g></g></g></g></svg>