<svg fill="currentColor" style="vertical-align: -0.898ex;" xmlns="http://www.w3.org/2000/svg" width="27.661ex" height="3.031ex" viewBox="0 -1002.7 13000.6 1424.6"><g stroke="currentColor" stroke-width="0" transform="scale(1,-1)"><g><g><path d="M663 267L619 267C588 102 543 47 387 47L321 47C270 47 249 53 249 95L249 350L269 350C393 350 410 300 413 206L460 206L460 534L413 534C408 436 368 397 273 397L249 397L249 625C249 668 258 675 312 675L364 675C530 675 572 641 601 466L644 466L644 722L29 722L29 675L47 675C128 675 137 670 137 628L137 94C137 52 128 47 47 47L29 47L29 0L643 0Z"/><path d="M594 0L594 43L569 43C514 43 506 52 506 116L506 466L318 455L318 412L369 412C406 412 412 405 412 362L412 239C412 182 406 149 391 116C370 72 330 46 281 46C250 46 224 57 211 77C198 96 196 106 196 161L196 466L21 455L21 412L59 412C96 412 102 405 102 362L102 146C102 95 106 72 121 49C148 8 196-15 256-15C322-15 368 12 412 76L412-7Z" transform="translate(722,0)"/><path d="M287 0L287 36L270 36C205 36 204 43 204 83L204 737L19 726L19 683L68 683C104 683 110 676 110 633L110 83C110 43 109 36 45 36L28 36L28 0Z" transform="translate(1333,0)"/><path d="M465 127L430 146C389 69 347 39 280 39C197 39 141 99 141 225L465 225C465 375 382 481 259 481C131 481 35 370 35 220C35 80 126-15 261-15C356-15 424 32 465 127M358 305C358 276 349 268 317 268L142 268C142 375 196 438 257 438C318 438 358 385 358 305Z" transform="translate(1648,0)"/><path d="M435 401C435 449 401 481 348 481C285 481 230 430 198 342L198 466L21 455L21 412L62 412C99 412 105 405 105 362L105 83C105 43 104 36 39 36L25 36L25 0L292 0L292 36L273 36C209 36 198 43 198 83L198 133C198 208 212 284 237 341C261 397 295 428 337 433C323 417 319 407 319 388C319 356 342 333 374 333C410 333 435 360 435 401Z" transform="translate(2148,0)"/><path d="" transform="translate(2592,0)"/><path d="M535 235C535 373 449 481 339 481C277 481 236 455 201 395L201 466L28 455L28 412L64 412C101 412 107 405 107 362L107-119C107-159 106-166 42-166L28-166L28-202L288-202L288-166L274-166C209-166 201-159 201-119L201 66C234 8 272-15 333-15C449-15 535 92 535 235M430 241C430 112 389 39 318 39C247 39 200 113 200 228C200 352 245 427 321 427C390 427 430 358 430 241Z" transform="translate(2870,0)"/><path d="M435 401C435 449 401 481 348 481C285 481 230 430 198 342L198 466L21 455L21 412L62 412C99 412 105 405 105 362L105 83C105 43 104 36 39 36L25 36L25 0L292 0L292 36L273 36C209 36 198 43 198 83L198 133C198 208 212 284 237 341C261 397 295 428 337 433C323 417 319 407 319 388C319 356 342 333 374 333C410 333 435 360 435 401Z" transform="translate(3444,0)"/><path d="M466 233C466 370 370 481 252 481C130 481 34 372 34 232C34 95 130-15 250-15C370-15 466 95 466 233M361 233C361 100 322 28 250 28C178 28 139 100 139 232C139 368 177 438 252 438C322 438 361 365 361 233Z" transform="translate(3888,0)"/><path d="M528 430L528 466L328 466L328 430L342 430C377 430 396 418 396 395C395 384 393 368 387 353L295 121L181 386C178 392 176 401 176 407C176 424 189 430 230 430L244 430L244 466L8 466L8 430L22 430C60 430 67 421 82 387L254-15L289-15L431 336C458 402 476 430 514 430Z" transform="translate(4388,0)"/><path d="M465 127L430 146C389 69 347 39 280 39C197 39 141 99 141 225L465 225C465 375 382 481 259 481C131 481 35 370 35 220C35 80 126-15 261-15C356-15 424 32 465 127M358 305C358 276 349 268 317 268L142 268C142 375 196 438 257 438C318 438 358 385 358 305Z" transform="translate(4925,0)"/><path d="M554 0L554 43L536 43C482 43 474 53 474 116L474 737L278 726L278 683L337 683C373 683 380 676 380 633L380 407C343 458 300 481 242 481C129 481 43 372 43 228C43 86 126-15 242-15C305-15 348 12 380 72L380-7M379 231C379 115 333 39 261 39C191 39 148 105 148 216C148 275 154 320 167 354C184 398 221 427 262 427C303 427 342 397 360 351C372 321 379 279 379 231Z" transform="translate(5425,0)"/><path d="" transform="translate(5999,0)"/></g><g transform="translate(6443.7,0)"><g><g transform="translate(0 -10)"><path d="M1019-72L969-72C935-160 924-200 798-199L206-199L492 284L240 801L748 801C872 801 908 754 926 645L973 645L951 852L88 852L88 802L376 212L80-287L80-332L961-332Z"/></g><g transform="translate(1132,569.1) scale(0.707)"><g><path d="M908 269C908 370 825 453 723 453C633 453 564 390 508 316C452 395 380 463 286 463C170 463 80 366 80 251C80 147 171 67 278 67C365 67 428 131 480 203C534 127 599 57 689 57C810 57 908 152 908 269M455 240C413 179 365 123 294 123C206 123 128 184 128 269C128 338 191 387 260 387C347 387 406 313 455 240M860 251C860 179 790 133 715 133C632 133 580 209 533 280C578 342 633 397 707 397C790 397 860 333 860 251Z"/></g></g><g transform="translate(1132,-377.4) scale(0.707)"><g><path d="M562 135L533 156C483 77 440 36 409 36C399 36 391 44 391 55C391 66 394 78 410 122L457 260C473 305 481 344 481 373C481 426 438 470 385 470C326 470 267 427 200 335L229 470L48 455L44 419L68 419C109 419 125 410 125 388C125 379 122 366 116 344L14 0L101 0L142 139C168 226 180 254 216 307C259 371 312 410 355 410C378 410 395 392 395 369C395 352 390 330 380 299L327 143C314 104 309 81 309 59C309 17 339-15 379-15C442-15 506 38 562 135Z"/></g><g transform="translate(611,0)"><path d="M700 325L700 395L80 395L80 325M700 125L700 195L80 195L80 125Z"/></g><g transform="translate(1391,0)"><path d="M496 0L496 47L441 47C388 47 366 51 358 61C351 68 351 68 351 123L351 536C351 585 353 633 358 704L322 704C288 663 196 630 104 630L104 587L192 587C250 587 254 583 254 524L254 94C254 52 245 47 165 47L100 47L100 0Z"/></g></g></g><g transform="translate(2725.4,0)"><g transform="translate(407.8,394) scale(0.707)"><path d="M496 0L496 47L441 47C388 47 366 51 358 61C351 68 351 68 351 123L351 536C351 585 353 633 358 704L322 704C288 663 196 630 104 630L104 587L192 587C250 587 254 583 254 524L254 94C254 52 245 47 165 47L100 47L100 0Z"/></g><g transform="translate(220,-411.4) scale(0.707)"><g><path d="M562 135L533 156C483 77 440 36 409 36C399 36 391 44 391 55C391 66 394 78 410 122L457 260C473 305 481 344 481 373C481 426 438 470 385 470C326 470 267 427 200 335L229 470L48 455L44 419L68 419C109 419 125 410 125 388C125 379 122 366 116 344L14 0L101 0L142 139C168 226 180 254 216 307C259 371 312 410 355 410C378 410 395 392 395 369C395 352 390 330 380 299L327 143C314 104 309 81 309 59C309 17 339-15 379-15C442-15 506 38 562 135Z"/></g><g transform="translate(644,289) scale(0.707)"><path d="M505 216L461 216L451 165C438 101 430 94 368 94L144 94C213 166 236 187 300 237C390 307 431 342 453 372C485 415 501 461 501 509C501 622 406 704 276 704C149 704 51 622 51 516C51 453 83 410 131 410C168 410 193 435 193 471C193 496 179 519 157 528C120 544 118 545 118 558C118 609 181 661 256 661C338 661 388 610 388 526C388 452 353 385 270 297L133 151C97 109 79 86 35 28L35 0L486 0Z"/></g></g><rect width="968.7" height="70" x="120" y="215"/></g><g transform="translate(4211.9,0)"><path d="M700 325L700 395L80 395L80 325M700 125L700 195L80 195L80 125Z"/></g><g transform="translate(5269.7,0)"><g transform="translate(220,394) scale(0.707)"><g><path d="M715 466L181 466C105 466 54 398 49 314C48 297 50 277 58 254L78 259C76 269 76 281 77 291C80 343 108 394 156 394L301 394L139 93C128 73 122 52 120 32C118 10 136-9 158-9C199-9 216 20 228 56L339 394L489 394L402 180C376 114 362 70 361 50C358 9 376-10 412-10C431-10 444-1 454 16C462 30 467 70 471 134C478 230 496 316 526 394L684 394C704 394 714 443 715 466Z"/></g><g transform="translate(755,363) scale(0.707)"><path d="M505 216L461 216L451 165C438 101 430 94 368 94L144 94C213 166 236 187 300 237C390 307 431 342 453 372C485 415 501 461 501 509C501 622 406 704 276 704C149 704 51 622 51 516C51 453 83 410 131 410C168 410 193 435 193 471C193 496 179 519 157 528C120 544 118 545 118 558C118 609 181 661 256 661C338 661 388 610 388 526C388 452 353 385 270 297L133 151C97 109 79 86 35 28L35 0L486 0Z"/></g></g><g transform="translate(447,-352.8) scale(0.707)"><path d="M516 224C516 342 431 430 318 430C250 430 200 403 153 340C163 465 168 497 190 549C219 620 271 661 335 661C370 661 391 650 391 632C391 628 390 625 386 618C376 599 371 585 371 571C371 537 397 512 432 512C470 512 498 542 498 584C498 653 428 704 334 704C147 704 42 513 42 308C42 113 138-15 286-15C419-15 516 95 516 224M407 217C407 102 361 28 288 28C217 28 160 104 160 203C160 306 210 369 291 369C363 369 407 312 407 217Z"/></g><rect width="1047.2" height="70" x="120" y="215"/></g></g></g></g></svg>