<svg fill="currentColor" style="vertical-align: -0.8ex;" xmlns="http://www.w3.org/2000/svg" width="26.622ex" height="2.769ex" viewBox="0 -1021.7 13816.9 1437"><g stroke="currentColor" stroke-width="0" transform="scale(1,-1)"><g><g><path d="M650 0L650 162L590 162L590 60L247 60L247 365L486 365L486 274L546 274L546 516L486 516L486 425L247 425L247 669L582 669L582 567L642 567L642 729L55 729L55 677L148 677L148 52L55 52L55 0Z"/><path d="M607 0L607 52L522 52L522 519L354 519L354 467L432 467L432 231C432 173 421 129 399 98C377 67 345 52 304 52C265 52 237 64 222 87C206 110 198 154 198 217L198 519L27 519L27 467L108 467L108 189C108 119 122 68 149 35C176 2 219-14 276-14C311-14 341-5 368 13C394 31 415 57 432 92L432 0Z" transform="translate(729,0)"/><path d="M290 0L290 52L205 52L205 760L29 760L29 708L115 708L115 52L29 52L29 0Z" transform="translate(1373,0)"/><path d="M436 302L155 302C160 362 175 408 198 438C222 470 255 485 296 485C340 485 374 470 398 439C421 408 434 363 436 302M542 250C541 342 519 412 477 460C435 509 375 533 296 533C223 533 163 508 118 458C73 408 50 342 50 260C50 177 73 111 119 61C165 11 226-14 302-14C365-14 415 0 454 29C493 58 519 100 533 157L461 157C451 116 433 86 408 65C383 44 350 34 311 34C260 34 221 52 194 88C168 123 155 176 155 246L155 250Z" transform="translate(1692,0)"/><path d="M478 390L478 520L427 530C411 532 396 533 381 533C341 533 307 524 280 507C252 490 229 463 212 427L212 519L36 519L36 468L122 468L122 52L41 52L41 0L316 0L316 52L212 52L212 289C212 346 224 390 248 421C271 452 305 467 349 467C374 467 392 461 405 448C418 435 425 416 426 390Z" transform="translate(2283,0)"/><path d="" transform="translate(2761,0)"/><path d="M590 260C590 341 570 407 530 458C489 508 437 533 373 533C333 533 299 525 272 510C245 495 222 471 205 438L205 519L29 519L29 467L115 467L115-156L29-156L29-208L290-208L290-156L205-156L205 81C222 48 245 24 272 9C299-6 333-14 373-14C437-14 489 11 530 62C570 113 590 179 590 260M485 260C485 188 473 134 450 97C426 60 391 42 345 42C300 42 265 58 241 91C217 124 205 171 205 234L205 285C205 347 217 394 241 428C265 460 300 477 345 477C391 477 426 459 450 422C473 386 485 332 485 260Z" transform="translate(3078,0)"/><path d="M478 390L478 520L427 530C411 532 396 533 381 533C341 533 307 524 280 507C252 490 229 463 212 427L212 519L36 519L36 468L122 468L122 52L41 52L41 0L316 0L316 52L212 52L212 289C212 346 224 390 248 421C271 452 305 467 349 467C374 467 392 461 405 448C418 435 425 416 426 390Z" transform="translate(3718,0)"/><path d="M552 260C552 343 529 409 484 458C438 508 377 533 301 533C225 533 164 508 118 458C73 409 50 343 50 260C50 177 73 111 119 61C165 11 226-14 301-14C377-14 438 11 484 61C529 111 552 177 552 260M447 260C447 185 435 129 410 91C385 53 349 34 301 34C253 34 217 53 192 92C167 130 155 186 155 260C155 334 167 390 192 428C217 466 253 485 301 485C349 485 385 466 410 428C435 390 447 334 447 260Z" transform="translate(4196,0)"/><path d="M562 467L562 519L367 519L367 467L445 467L299 110L153 467L236 467L236 519L-3 519L-3 467L56 467L247 0L313 0L504 467Z" transform="translate(4798,0)"/><path d="M436 302L155 302C160 362 175 408 198 438C222 470 255 485 296 485C340 485 374 470 398 439C421 408 434 363 436 302M542 250C541 342 519 412 477 460C435 509 375 533 296 533C223 533 163 508 118 458C73 408 50 342 50 260C50 177 73 111 119 61C165 11 226-14 302-14C365-14 415 0 454 29C493 58 519 100 533 157L461 157C451 116 433 86 408 65C383 44 350 34 311 34C260 34 221 52 194 88C168 123 155 176 155 246L155 250Z" transform="translate(5362,0)"/><path d="M435 234C435 171 423 124 399 91C375 58 340 42 295 42C249 42 214 60 190 98C167 135 155 189 155 260C155 332 167 386 190 422C214 459 249 477 295 477C340 477 375 460 399 428C423 394 435 347 435 285M611 0L611 52L525 52L525 760L350 760L350 708L435 708L435 438C418 471 395 495 368 510C341 525 307 533 267 533C203 533 151 508 110 458C70 407 50 341 50 260C50 179 70 113 110 62C151 11 203-14 267-14C307-14 341-6 368 9C395 24 418 48 435 81L435 0Z" transform="translate(5953,0)"/><path d="" transform="translate(6593,0)"/></g><g transform="translate(7076.7,0)"><g><g transform="translate(0 -25)"><path d="M893 9L851 9L815-96C811-110 804-118 797-124C791-128 776-131 753-131L247-131L603 255L603 312L256 742L657 742C681 742 699 740 710 735C721 729 731 720 734 708L772 603L814 603L754 800L80 800L80 771L510 238L80-228L80-250L814-250Z"/></g><g transform="translate(1006,502.1) scale(0.707)"><g><path d="M698 300C698 354 683 399 652 436C621 473 584 491 541 491C509 491 480 480 454 459C429 438 405 405 383 360C359 406 335 439 310 459C285 479 258 489 227 489C183 489 148 471 120 436C94 401 80 355 80 298C80 244 95 199 126 162C156 126 193 108 237 108C268 108 296 118 322 139C346 160 371 192 394 236C420 190 445 158 469 138C493 120 520 110 551 110C595 110 630 128 658 162C684 198 698 243 698 300M359 325C334 271 311 233 290 212C268 191 245 180 218 180C189 180 165 191 146 213C127 235 117 262 117 295C117 329 128 357 148 378C170 400 196 411 229 411C256 411 281 404 302 390C324 375 343 354 359 325M661 303C661 269 650 241 630 219C609 197 582 186 549 186C522 186 497 193 476 208C454 223 435 244 419 273C444 326 468 364 488 386C510 407 533 418 560 418C589 418 613 407 632 385C651 363 661 336 661 303Z"/></g></g><g transform="translate(1006,-310.4) scale(0.707)"><g><path d="M584 52L504 52L558 330C564 357 567 382 567 404C567 437 561 464 548 484C527 517 488 533 431 533C396 533 363 524 333 506C303 489 276 462 253 427L271 519L95 519L85 467L171 467L80 0L170 0L226 289C237 347 257 391 285 422C313 453 348 468 389 468C428 467 454 455 465 432C470 421 472 406 472 386C473 363 470 335 463 302L404 0L574 0Z"/></g><g transform="translate(664,0)"><path d="M708 335L708 415L80 415L80 335M708 135L708 215L80 215L80 135Z"/></g><g transform="translate(1452,0)"><path d="M494 0L494 52L367 52L367 742L300 742L122 627L122 563L269 658L269 52L142 52L142 0Z"/></g></g></g><g transform="translate(2699.1,0)"><g transform="translate(418.2,394) scale(0.707)"><path d="M494 0L494 52L367 52L367 742L300 742L122 627L122 563L269 658L269 52L142 52L142 0Z"/></g><g transform="translate(220,-415.4) scale(0.707)"><g><path d="M584 52L504 52L558 330C564 357 567 382 567 404C567 437 561 464 548 484C527 517 488 533 431 533C396 533 363 524 333 506C303 489 276 462 253 427L271 519L95 519L85 467L171 467L80 0L170 0L226 289C237 347 257 391 285 422C313 453 348 468 389 468C428 467 454 455 465 432C470 421 472 406 472 386C473 363 470 335 463 302L404 0L574 0Z"/></g><g transform="translate(697,289) scale(0.707)"><path d="M538 0L538 170L481 170L481 80L177 80L361 264C364 268 370 274 378 281C478 380 528 466 528 537C528 600 506 650 462 687C418 724 358 742 282 742C248 742 213 737 178 728C143 718 108 704 73 685L73 555L128 555C133 601 148 636 173 659C198 682 234 694 281 694C326 694 361 680 386 652C412 625 425 586 425 537C425 492 414 450 394 408C372 368 338 323 289 274L68 53L68 0Z"/></g></g><rect width="1046.2" height="60" x="120" y="220"/></g><g transform="translate(4263.1,0)"><path d="M708 335L708 415L80 415L80 335M708 135L708 215L80 215L80 135Z"/></g><g transform="translate(5328.9,0)"><g transform="translate(220,394) scale(0.707)"><g><path d="M761 519L176 519L165 467L251 467L171 52L90 52L80 0L329 0L339 52L261 52L341 467L575 467L494 52L417 52L407 0L655 0L665 52L585 52L665 467L750 467Z"/></g><g transform="translate(874,363) scale(0.707)"><path d="M538 0L538 170L481 170L481 80L177 80L361 264C364 268 370 274 378 281C478 380 528 466 528 537C528 600 506 650 462 687C418 724 358 742 282 742C248 742 213 737 178 728C143 718 108 704 73 685L73 555L128 555C133 601 148 636 173 659C198 682 234 694 281 694C326 694 361 680 386 652C412 625 425 586 425 537C425 492 414 450 394 408C372 368 338 323 289 274L68 53L68 0Z"/></g></g><g transform="translate(480.8,-364.7) scale(0.707)"><path d="M573 230C573 305 552 365 510 408C468 452 411 474 338 474C303 474 271 468 243 456C215 444 190 426 168 401C169 500 184 574 216 622C246 670 294 694 357 694C393 694 422 685 442 668C464 651 476 626 480 593L535 593L535 713C506 723 477 730 448 735C420 740 393 742 367 742C272 742 198 707 146 637C93 567 67 468 67 341C67 227 89 139 133 78C177 17 240-14 323-14C399-14 460 8 505 52C550 97 573 156 573 230M470 230C470 167 458 118 433 84C408 51 373 34 327 34C281 34 246 52 221 86C196 122 184 171 184 236C184 297 196 344 220 377C245 410 280 426 327 426C373 426 408 409 433 376C458 342 470 293 470 230Z"/></g><rect width="1171.4" height="60" x="120" y="220"/></g></g></g></g></svg>