<svg fill="currentColor" style="vertical-align: -0.827ex;" xmlns="http://www.w3.org/2000/svg" width="27.092ex" height="2.826ex" viewBox="0 -997.7 13518.7 1410.4"><g stroke="currentColor" stroke-width="0" transform="scale(1,-1)"><g><g><path d="M705 213L674 227C565 87 483 43 334 43C239 43 221 70 221 131L221 342L295 342C374 342 408 307 418 213L452 213L452 512L418 512C404 408 382 385 297 385L221 385L221 555C221 619 247 638 335 638C471 638 547 600 639 488L671 501L602 681L31 681L31 650L56 647C108 640 121 619 121 537L121 144C121 62 108 41 56 34L31 31L31 0L614 0Z"/><path d="M653 0L653 30L628 32C584 37 566 60 566 115L566 485L532 485C480 473 460 471 381 465L381 435L405 433C456 429 471 410 471 350L471 127C404 68 345 39 296 39C233 39 205 73 205 149L205 485L171 485C119 473 97 470 20 465L20 435L44 433C95 429 110 410 110 350L110 141C110 21 187-9 259-9C331-9 386 15 471 84L471 0Z" transform="translate(720,0)"/><path d="M286 0L286 30L263 32C218 37 201 60 201 115L201 717L161 717C111 697 88 691 20 683L20 652L41 650C95 645 106 627 106 538L106 115C106 60 89 37 44 32L20 30L20 0Z" transform="translate(1400,0)"/><path d="M491 116L458 132C422 66 376 36 314 36C178 36 144 143 144 289L491 289C492 452 347 494 273 494C136 494 37 391 37 247C37 135 108-9 284-9C376-9 440 29 491 116M387 329L147 329C158 395 185 454 269 454C372 454 389 357 387 332Z" transform="translate(1700,0)"/><path d="M447 438C447 471 417 494 374 494C291 494 243 435 205 405L205 485L171 485C109 473 76 469 20 465L20 435L44 433C95 429 110 410 110 350L110 115C110 60 92 37 48 32L23 30L23 0L292 0L292 30L267 32C223 37 205 60 205 115L205 360C241 400 268 416 297 416C314 416 321 413 339 401C356 388 372 383 390 383C423 383 447 406 447 438Z" transform="translate(2220,0)"/><path d="" transform="translate(2660,0)"/><path d="M583 245C583 372 505 494 365 494C299 494 247 470 202 419L202 485L168 485C110 474 79 470 20 465L20 435L41 433C93 428 107 410 107 350L107-113C107-167 89-192 45-196L20-198L20-228L289-228L289-198L264-196C220-192 202-167 202-113L202 42C248 7 297-9 360-9C487-9 583 101 583 245M481 233C481 119 419 36 335 36C285 36 240 55 202 91L202 369C244 425 283 449 334 449C423 449 481 364 481 233Z" transform="translate(2980,0)"/><path d="M447 438C447 471 417 494 374 494C291 494 243 435 205 405L205 485L171 485C109 473 76 469 20 465L20 435L44 433C95 429 110 410 110 350L110 115C110 60 92 37 48 32L23 30L23 0L292 0L292 30L267 32C223 37 205 60 205 115L205 360C241 400 268 416 297 416C314 416 321 413 339 401C356 388 372 383 390 383C423 383 447 406 447 438Z" transform="translate(3600,0)"/><path d="M526 239C526 331 477 494 279 494C85 494 37 331 37 241C37 90 134-9 283-9C428-9 526 91 526 239M424 234C424 107 372 31 284 31C192 31 139 108 139 243C139 371 195 454 280 454C370 454 424 371 424 234Z" transform="translate(4040,0)"/><path d="M534 453L534 485L328 485L328 455C395 445 403 414 382 362L278 88L165 385C146 443 161 448 221 455L221 485L-23 485L-23 454C22 447 36 436 59 385L218 0L277 0L430 354C457 413 487 442 534 453Z" transform="translate(4600,0)"/><path d="M491 116L458 132C422 66 376 36 314 36C178 36 144 143 144 289L491 289C492 452 347 494 273 494C136 494 37 391 37 247C37 135 108-9 284-9C376-9 440 29 491 116M387 329L147 329C158 395 185 454 269 454C372 454 389 357 387 332Z" transform="translate(5120,0)"/><path d="M591 0L591 30L579 32C533 42 518 62 518 115L518 717L478 717C428 697 405 691 337 683L337 652L358 650C412 645 423 627 423 538L423 441C369 478 318 494 257 494C132 494 37 385 37 241C37 121 108-9 250-9C354-9 409 52 423 67L423 0M423 118C378 63 335 39 279 39C166 39 139 164 139 243C139 315 163 449 287 449C335 449 369 434 423 389Z" transform="translate(5640,0)"/><path d="" transform="translate(6260,0)"/></g><g transform="translate(6746.7,0)"><g><g transform="translate(0 -10)"><path d="M946 0L912 15C790-126 749-152 471-152L186-152L442 329L253 683L421 683C603 683 729 694 877 539L910 556L835 750L93 750L93 706L324 274L80-186L80-230L847-230Z"/></g><g transform="translate(1059,467.1) scale(0.707)"><g><path d="M902 275C902 372 822 451 724 451C633 451 565 387 509 312C454 390 384 460 291 460C173 460 80 362 80 245C80 145 168 69 271 69C358 69 420 134 473 207C525 132 588 60 677 60C801 60 902 156 902 275M455 234C413 175 364 121 295 121C203 121 122 186 122 275C122 341 181 390 248 390C340 390 403 311 455 234M860 245C860 176 792 130 720 130C633 130 577 211 527 286C572 346 627 399 700 399C787 399 860 331 860 245Z"/></g></g><g transform="translate(1059,-275.4) scale(0.707)"><g><path d="M673 59L653 81C624 52 610 43 591 43C564 43 543 68 543 99C543 112 545 125 550 154L580 318C585 346 592 384 592 401C592 459 545 495 468 495C401 495 339 471 258 414L271 486L233 486C176 473 161 470 93 464L88 435L100 433C147 425 158 410 158 383C158 375 157 367 156 358L91 0L183 0L249 367C325 425 376 448 430 448C472 448 499 425 499 389C499 371 492 341 490 329L461 172C452 124 450 105 450 86C450 32 490-9 543-9C591-9 637 15 673 59Z"/></g><g transform="translate(673,0)"><path d="M720 330L720 402L80 402L80 330M720 118L720 190L80 190L80 118Z"/></g><g transform="translate(1473,0)"><path d="M501 0L501 30L469 32C393 37 379 53 379 139L379 681L347 681C282 666 261 662 161 650L161 620L201 618C274 615 284 603 284 524L284 141C284 85 288 38 193 32L160 30L160 0Z"/></g></g></g><g transform="translate(2755.6,0)"><g transform="translate(441.7,394) scale(0.707)"><path d="M501 0L501 30L469 32C393 37 379 53 379 139L379 681L347 681C282 666 261 662 161 650L161 620L201 618C274 615 284 603 284 524L284 141C284 85 288 38 193 32L160 30L160 0Z"/></g><g transform="translate(220,-406.4) scale(0.707)"><g><path d="M673 59L653 81C624 52 610 43 591 43C564 43 543 68 543 99C543 112 545 125 550 154L580 318C585 346 592 384 592 401C592 459 545 495 468 495C401 495 339 471 258 414L271 486L233 486C176 473 161 470 93 464L88 435L100 433C147 425 158 410 158 383C158 375 157 367 156 358L91 0L183 0L249 367C325 425 376 448 430 448C472 448 499 425 499 389C499 371 492 341 490 329L461 172C452 124 450 105 450 86C450 32 490-9 543-9C591-9 637 15 673 59Z"/></g><g transform="translate(758.7,289) scale(0.707)"><path d="M576 187L538 197L528 174C494 96 471 82 380 82L153 82C272 157 309 183 358 224C475 322 533 414 533 499C533 613 431 694 287 694C156 694 46 608 46 506C46 458 76 422 114 422C144 422 171 448 171 476C171 486 166 499 159 508C141 530 138 537 138 554C138 602 206 646 279 646C361 646 415 592 415 513C415 437 378 361 295 268C229 195 168 147 42 70L42 0L528 0Z"/></g></g><rect width="1081.8" height="70" x="120" y="215"/></g><g transform="translate(4355.2,0)"><path d="M720 330L720 402L80 402L80 330M720 118L720 190L80 190L80 118Z"/></g><g transform="translate(5433,0)"><g transform="translate(220,394) scale(0.707)"><g><path d="M670 460L627 483C604 470 572 463 532 463C513 463 480 466 433 471C334 482 271 488 244 488C182 488 101 468 80 435L128 417C153 430 179 436 208 436C208 436 213 435 228 434L128 0L208 0L306 427L449 409L385 127C381 110 379 93 379 77C379 21 425-12 483-12C533-12 585 20 639 84L606 111C564 64 528 41 499 41C472 41 458 56 458 85C458 97 460 113 465 134L527 408C602 420 632 424 670 460Z"/></g><g transform="translate(783,363) scale(0.707)"><path d="M576 187L538 197L528 174C494 96 471 82 380 82L153 82C272 157 309 183 358 224C475 322 533 414 533 499C533 613 431 694 287 694C156 694 46 608 46 506C46 458 76 422 114 422C144 422 171 448 171 476C171 486 166 499 159 508C141 530 138 537 138 554C138 602 206 646 279 646C361 646 415 592 415 513C415 437 378 361 295 268C229 195 168 147 42 70L42 0L528 0Z"/></g></g><g transform="translate(450.3,-345.7) scale(0.707)"><path d="M590 215C590 342 488 435 349 435C264 435 206 404 154 333C158 403 158 408 162 438C181 582 242 654 343 654C382 654 417 642 436 623C443 616 445 609 446 595C446 548 471 516 509 516C539 516 561 537 561 565C561 633 460 694 346 694C224 694 45 610 45 318C45 49 211-13 322-13C473-13 590 86 590 215M477 210C477 103 416 35 320 35C222 35 163 99 163 203C163 313 226 383 326 383C417 383 477 315 477 210Z"/></g><rect width="1099" height="70" x="120" y="215"/></g></g></g></g></svg>