<svg fill="currentColor" style="vertical-align: -0.871ex;" xmlns="http://www.w3.org/2000/svg" width="28.166ex" height="3.097ex" viewBox="0 -983.7 12449.5 1368.8"><g stroke="currentColor" stroke-width="0" transform="scale(1,-1)"><g><g><path d="M652 258L627 258C602 104 579 31 407 31L274 31C227 31 225 38 225 71L225 338L315 338C412 338 423 306 423 221L448 221L448 486L423 486C423 400 412 369 315 369L225 369L225 609C225 642 227 649 274 649L403 649C556 649 583 594 599 455L624 455L596 680L33 680L33 649L57 649C134 649 136 638 136 602L136 78C136 42 134 31 57 31L33 31L33 0L610 0Z"/><path d="M535 0L535 31C465 31 457 38 457 87L457 442L310 431L310 400C380 400 388 393 388 344L388 166C388 79 340 11 267 11C183 11 179 58 179 110L179 442L32 431L32 400C110 400 110 397 110 308L110 158C110 80 110-11 262-11C318-11 362 17 391 79L391-11Z" transform="translate(681,0)"/><path d="M255 0L255 31C188 31 177 31 177 76L177 694L33 683L33 652C103 652 111 645 111 596L111 76C111 31 100 31 33 31L33 0L144 3Z" transform="translate(1237,0)"/><path d="M415 119C415 129 407 131 402 131C393 131 391 125 389 117C354 14 264 14 254 14C204 14 164 44 141 81C111 129 111 195 111 231L390 231C412 231 415 231 415 252C415 351 361 448 236 448C120 448 28 345 28 220C28 86 133-11 248-11C370-11 415 100 415 119M349 252L112 252C118 401 202 426 236 426C339 426 349 291 349 252Z" transform="translate(1515,0)"/><path d="M364 381C364 413 333 442 290 442C217 442 181 375 167 332L167 442L28 431L28 400C98 400 106 393 106 344L106 76C106 31 95 31 28 31L28 0L142 3C182 3 229 3 269 0L269 31L248 31C174 31 172 42 172 78L172 232C172 331 214 420 290 420C297 420 299 420 301 419C298 418 278 406 278 380C278 352 299 337 321 337C339 337 364 349 364 381Z" transform="translate(1959,0)"/><path d="" transform="translate(2351,0)"/><path d="M521 216C521 343 424 442 312 442C234 442 192 398 172 376L172 442L28 431L28 400C99 400 106 394 106 350L106-118C106-163 95-163 28-163L28-194L140-191L253-194L253-163C186-163 175-163 175-118L175 50L175 59C180 43 222-11 298-11C417-11 521 87 521 216M438 216C438 95 368 11 294 11C254 11 216 31 189 72C175 93 175 94 175 114L175 337C204 388 253 417 304 417C377 417 438 329 438 216Z" transform="translate(2683,0)"/><path d="M364 381C364 413 333 442 290 442C217 442 181 375 167 332L167 442L28 431L28 400C98 400 106 393 106 344L106 76C106 31 95 31 28 31L28 0L142 3C182 3 229 3 269 0L269 31L248 31C174 31 172 42 172 78L172 232C172 331 214 420 290 420C297 420 299 420 301 419C298 418 278 406 278 380C278 352 299 337 321 337C339 337 364 349 364 381Z" transform="translate(3239,0)"/><path d="M471 214C471 342 371 448 250 448C125 448 28 339 28 214C28 85 132-11 249-11C370-11 471 87 471 214M388 222C388 186 388 132 366 88C344 43 300 14 250 14C207 14 163 35 136 81C111 125 111 186 111 222C111 261 111 315 135 359C162 405 209 426 249 426C293 426 336 404 362 361C388 318 388 260 388 222Z" transform="translate(3631,0)"/><path d="M508 400L508 431C485 429 456 428 433 428L346 431L346 400C383 399 394 376 394 357C394 348 392 344 388 333L286 78L174 357C168 370 168 374 168 374C168 400 207 400 225 400L225 431L116 428C89 428 49 429 19 431L19 400C82 400 86 394 99 363L243 8C249-6 251-11 264-11C277-11 281-2 285 8L416 333C425 356 442 399 508 400Z" transform="translate(4131,0)"/><path d="M415 119C415 129 407 131 402 131C393 131 391 125 389 117C354 14 264 14 254 14C204 14 164 44 141 81C111 129 111 195 111 231L390 231C412 231 415 231 415 252C415 351 361 448 236 448C120 448 28 345 28 220C28 86 133-11 248-11C370-11 415 100 415 119M349 252L112 252C118 401 202 426 236 426C339 426 349 291 349 252Z" transform="translate(4659,0)"/><path d="M527 0L527 31C457 31 449 38 449 87L449 694L305 683L305 652C375 652 383 645 383 596L383 380C354 416 311 442 257 442C139 442 34 344 34 215C34 88 132-11 246-11C310-11 355 23 380 55L380-11M380 118C380 100 380 98 369 81C339 33 294 11 251 11C206 11 170 37 146 75C120 116 117 173 117 214C117 251 119 311 148 356C169 387 207 420 261 420C296 420 338 405 369 360C380 343 380 341 380 323Z" transform="translate(5103,0)"/><path d="" transform="translate(5659,0)"/></g><g transform="translate(6157.7,0)"><g><g><path d="M999-1L974-1C949-76 882-137 797-166C781-171 712-195 565-195L140-195L487 234C494 243 496 246 496 250C496 254 495 255 489 264L164 710L560 710C674 710 904 703 974 516L999 516L913 750L84 750C57 750 56 749 56 718L421 216L66-223C58-233 57-235 57-239C57-250 66-250 84-250L913-250Z"/></g><g transform="translate(1089,477.1) scale(0.707)"><g><path d="M943 216C943 327 873 442 754 442C610 442 521 294 508 272C441 353 440 354 418 373C386 400 327 442 248 442C132 442 56 333 56 215C56 104 126-11 245-11C389-11 478 137 491 159C558 78 559 77 581 58C613 31 672-11 751-11C867-11 943 98 943 216M921 216C921 116 851 37 767 37C721 37 680 60 635 109C607 140 562 203 534 237C572 305 648 410 761 410C867 410 921 306 921 216M465 194C427 126 351 21 238 21C132 21 78 125 78 215C78 315 148 394 232 394C278 394 319 371 364 322C392 291 437 228 465 194Z"/></g></g><g transform="translate(1089,-285.4) scale(0.707)"><g><path d="M571 143C571 153 562 153 559 153C549 153 549 150 544 135C524 67 491 11 442 11C425 11 418 21 418 44C418 69 427 93 436 115C455 168 497 278 497 335C497 402 454 442 382 442C292 442 243 378 226 355C221 411 180 442 134 442C88 442 69 403 59 385C43 351 29 292 29 288C29 278 41 278 41 278C51 278 52 279 58 301C75 372 95 420 131 420C151 420 162 407 162 374C162 353 159 342 146 290L88 59C85 44 79 21 79 16C79-2 93-11 108-11C120-11 138-3 145 17C146 19 158 66 164 91L186 181C192 203 198 225 203 248L216 298C231 329 284 420 379 420C424 420 433 383 433 350C433 288 384 160 368 117C359 94 358 82 358 71C358 24 393-11 440-11C534-11 571 135 571 143Z"/></g><g transform="translate(600,0)"><path d="M722 347C722 358 713 367 702 367L76 367C65 367 56 358 56 347C56 336 65 327 76 327L702 327C713 327 722 336 722 347M722 153C722 164 713 173 702 173L76 173C65 173 56 164 56 153C56 142 65 133 76 133L702 133C713 133 722 142 722 153Z"/></g><g transform="translate(1378,0)"><path d="M419 0L419 31L387 31C297 31 294 42 294 79L294 640C294 664 294 666 271 666C209 602 121 602 89 602L89 571C109 571 168 571 220 597L220 79C220 43 217 31 127 31L95 31L95 0C130 3 217 3 257 3C297 3 384 3 419 0Z"/></g></g></g><g transform="translate(2633.6,0)"><g transform="translate(409.7,394) scale(0.707)"><path d="M419 0L419 31L387 31C297 31 294 42 294 79L294 640C294 664 294 666 271 666C209 602 121 602 89 602L89 571C109 571 168 571 220 597L220 79C220 43 217 31 127 31L95 31L95 0C130 3 217 3 257 3C297 3 384 3 419 0Z"/></g><g transform="translate(220,-377.4) scale(0.707)"><g><path d="M571 143C571 153 562 153 559 153C549 153 549 150 544 135C524 67 491 11 442 11C425 11 418 21 418 44C418 69 427 93 436 115C455 168 497 278 497 335C497 402 454 442 382 442C292 442 243 378 226 355C221 411 180 442 134 442C88 442 69 403 59 385C43 351 29 292 29 288C29 278 41 278 41 278C51 278 52 279 58 301C75 372 95 420 131 420C151 420 162 407 162 374C162 353 159 342 146 290L88 59C85 44 79 21 79 16C79-2 93-11 108-11C120-11 138-3 145 17C146 19 158 66 164 91L186 181C192 203 198 225 203 248L216 298C231 329 284 420 379 420C424 420 433 383 433 350C433 288 384 160 368 117C359 94 358 82 358 71C358 24 393-11 440-11C534-11 571 135 571 143Z"/></g><g transform="translate(633,289) scale(0.707)"><path d="M449 174L424 174C419 144 412 100 402 85C395 77 329 77 307 77L127 77L233 180C389 318 449 372 449 472C449 586 359 666 237 666C124 666 50 574 50 485C50 429 100 429 103 429C120 429 155 441 155 482C155 508 137 534 102 534C94 534 92 534 89 533C112 598 166 635 224 635C315 635 358 554 358 472C358 392 308 313 253 251L61 37C50 26 50 24 50 0L421 0Z"/></g></g><rect width="933" height="60" x="120" y="220"/></g><g transform="translate(4084.3,0)"><path d="M722 347C722 358 713 367 702 367L76 367C65 367 56 358 56 347C56 336 65 327 76 327L702 327C713 327 722 336 722 347M722 153C722 164 713 173 702 173L76 173C65 173 56 164 56 153C56 142 65 133 76 133L702 133C713 133 722 142 722 153Z"/></g><g transform="translate(5140.1,0)"><g transform="translate(220,394) scale(0.707)"><g><path d="M567 407C567 431 546 431 527 431L192 431C170 431 132 431 88 384C53 345 27 299 27 294C27 294 27 284 39 284C47 284 49 288 55 296C104 373 162 373 182 373L239 373C207 252 153 131 111 40C103 25 103 23 103 16C103-3 119-11 132-11C162-11 170 17 182 54C196 100 196 102 209 152L265 373L378 373C345 225 336 182 336 115C336 100 336 73 344 39C354-5 365-11 380-11C400-11 421 7 421 27C421 33 421 35 415 49C386 121 386 186 386 214C386 267 393 321 404 373L518 373C531 373 567 373 567 407Z"/></g><g transform="translate(603,363) scale(0.707)"><path d="M449 174L424 174C419 144 412 100 402 85C395 77 329 77 307 77L127 77L233 180C389 318 449 372 449 472C449 586 359 666 237 666C124 666 50 574 50 485C50 429 100 429 103 429C120 429 155 441 155 482C155 508 137 534 102 534C94 534 92 534 89 533C112 598 166 635 224 635C315 635 358 554 358 472C358 392 308 313 253 251L61 37C50 26 50 24 50 0L421 0Z"/></g></g><g transform="translate(399.1,-345) scale(0.707)"><path d="M457 204C457 331 368 427 257 427C189 427 152 376 132 328L132 352C132 605 256 641 307 641C331 641 373 635 395 601C380 601 340 601 340 556C340 525 364 510 386 510C402 510 432 519 432 558C432 618 388 666 305 666C177 666 42 537 42 316C42 49 158-22 251-22C362-22 457 72 457 204M367 205C367 157 367 107 350 71C320 11 274 6 251 6C188 6 158 66 152 81C134 128 134 208 134 226C134 304 166 404 256 404C272 404 318 404 349 342C367 305 367 254 367 205Z"/></g><rect width="911.7" height="60" x="120" y="220"/></g></g></g></g></svg>