<svg fill="currentColor" style="vertical-align: -0.881ex;" xmlns="http://www.w3.org/2000/svg" width="26.27ex" height="3.123ex" viewBox="0 -988.7 11585.3 1377.4"><g stroke="currentColor" stroke-width="0" transform="scale(1,-1)"><g><g><path d="M597 169L569 169C519 61 476 37 333 37L306 37C258 37 218 41 209 48C203 52 201 61 201 80L201 327L355 327C437 327 452 314 465 231L488 231L488 463L465 463C452 381 436 368 355 368L201 368L201 590C201 618 207 624 234 624L369 624C482 624 504 609 521 519L546 519L543 662L12 662L12 643C86 637 99 624 99 553L99 109C99 38 85 24 12 19L12 0L552 0Z"/><path d="M479 36L479 50L474 50C428 50 417 61 417 107L417 450L259 450L259 433C321 430 333 420 333 370L333 135C333 108 328 93 316 84C288 60 257 48 226 48C187 48 155 82 155 124L155 450L9 450L9 436C57 433 71 418 71 372L71 120C71 41 119-10 192-10C229-10 268 6 295 33L338 76L338-7L342-9C392 11 428 22 479 36Z" transform="translate(611,0)"/><path d="M257 0L257 15C193 19 182 29 182 84L182 681L178 683C126 666 88 656 19 639L19 623L25 623C36 624 48 625 56 625C88 625 98 611 98 564L98 87C98 33 84 20 21 15L21 0Z" transform="translate(1111,0)"/><path d="M424 157L408 164C360 88 317 59 253 59C198 59 156 85 127 139C107 178 99 213 97 277L405 277C397 342 387 371 362 403C332 439 286 460 234 460C110 460 25 360 25 214C25 76 97-10 212-10C308-10 382 49 424 157M303 309L99 309C110 388 144 424 205 424C266 424 290 396 303 309Z" transform="translate(1389,0)"/><path d="M335 407C335 440 314 460 280 460C238 460 209 437 160 366L160 458L155 460C102 438 66 425 7 406L7 390C21 393 30 394 42 394C67 394 76 378 76 334L76 84C76 34 69 27 5 15L5 0L245 0L245 15C177 18 160 33 160 90L160 315C160 347 203 397 230 397C236 397 245 392 256 382C272 368 283 362 296 362C320 362 335 379 335 407Z" transform="translate(1833,0)"/><path d="" transform="translate(2166,0)"/><path d="M470 247C470 371 400 460 303 460C247 460 203 435 159 381L159 458L153 460C99 439 64 426 9 409L9 393C18 394 25 394 34 394C68 394 75 384 75 337L75-131C75-183 64-194 5-200L5-217L247-217L247-199C172-198 159-187 159-124L159 33C194 0 218-10 260-10C378-10 470 102 470 247M384 208C384 97 335 22 263 22C216 22 159 58 159 88L159 334C159 364 215 400 261 400C335 400 384 324 384 208Z" transform="translate(2416,0)"/><path d="M335 407C335 440 314 460 280 460C238 460 209 437 160 366L160 458L155 460C102 438 66 425 7 406L7 390C21 393 30 394 42 394C67 394 76 378 76 334L76 84C76 34 69 27 5 15L5 0L245 0L245 15C177 18 160 33 160 90L160 315C160 347 203 397 230 397C236 397 245 392 256 382C272 368 283 362 296 362C320 362 335 379 335 407Z" transform="translate(2916,0)"/><path d="M470 234C470 365 378 460 250 460C120 460 29 364 29 226C29 91 122-10 248-10C374-10 470 96 470 234M380 199C380 86 335 18 260 18C221 18 184 42 163 82C135 134 119 204 119 275C119 370 166 432 237 432C321 432 380 336 380 199Z" transform="translate(3249,0)"/><path d="M477 435L477 450L338 450L338 435C370 432 385 422 385 403C385 393 383 383 379 373L280 114L178 370C172 384 169 398 169 407C169 425 180 432 215 435L215 450L19 450L19 435C57 433 64 423 110 320L230 33C232 27 235 20 238 12C244-6 250-14 256-14C262-14 269-1 284 36L412 357C441 425 447 432 477 435Z" transform="translate(3749,0)"/><path d="M424 157L408 164C360 88 317 59 253 59C198 59 156 85 127 139C107 178 99 213 97 277L405 277C397 342 387 371 362 403C332 439 286 460 234 460C110 460 25 360 25 214C25 76 97-10 212-10C308-10 382 49 424 157M303 309L99 309C110 388 144 424 205 424C266 424 290 396 303 309Z" transform="translate(4249,0)"/><path d="M491 42L491 58C473 57 471 57 468 57C432 57 424 68 424 114L424 681L419 683C371 666 336 656 272 639L272 623C280 624 286 624 294 624C331 624 340 614 340 573L340 417C302 449 275 460 235 460C120 460 27 347 27 205C27 77 102-10 212-10C268-10 306 10 340 57L340-7L344-10M340 102C340 95 333 83 323 72C305 52 280 42 251 42C168 42 113 122 113 245C113 358 162 432 238 432C291 432 340 385 340 332Z" transform="translate(4693,0)"/><path d="" transform="translate(5193,0)"/></g><g transform="translate(5609.7,0)"><g><g><path d="M864-11L833-11C799-106 782-124 713-124L214-124L546 303L260 685L568 685C730 685 759 663 774 572L801 572L797 727L80 727L80 706C91 703 98 695 108 683L440 240L112-181C104-192 94-202 80-206L80-227L807-227Z"/></g><g transform="translate(977,454.1) scale(0.707)"><g><path d="M860 261C860 356 785 435 691 435C601 435 536 368 484 292C432 371 366 442 274 442C165 442 80 349 80 239C80 142 162 65 262 65C348 65 407 133 456 207C505 131 565 58 653 58C767 58 860 149 860 261M443 228C401 164 352 104 278 104C187 104 110 172 110 261C110 332 169 389 240 389C332 389 394 307 443 228M830 239C830 165 763 111 687 111C599 111 545 195 497 272C541 337 597 396 674 396C760 396 830 326 830 239Z"/></g></g><g transform="translate(977,-262.4) scale(0.707)"><g><path d="M474 104L460 117C453 108 446 99 439 91C410 54 392 38 378 38C369 38 362 45 362 54C362 62 366 81 376 117L433 323C439 344 442 366 442 380C442 416 415 441 376 441C312 441 249 380 146 221L213 439L210 441L48 410L48 394C99 393 112 387 112 367C112 361 111 355 110 350L14 0L89 0C136 158 145 180 189 248C249 341 300 390 337 390C352 390 361 379 361 361C361 349 355 316 347 285L303 120C290 68 287 55 287 45C287 7 301-9 334-9C379-9 404 11 474 104Z"/></g><g transform="translate(500,0)"><path d="M580 320L580 372L80 372L80 320M580 128L580 180L80 180L80 128Z"/></g><g transform="translate(1160,0)"><path d="M394 0L394 15C315 16 299 26 299 74L299 674L291 676L111 585L111 571C123 576 134 580 138 582C156 589 173 593 183 593C204 593 213 578 213 546L213 93C213 60 205 37 189 28C174 19 160 16 118 15L118 0Z"/></g></g></g><g transform="translate(2367.5,0)"><g transform="translate(374.3,394) scale(0.707)"><path d="M394 0L394 15C315 16 299 26 299 74L299 674L291 676L111 585L111 571C123 576 134 580 138 582C156 589 173 593 183 593C204 593 213 578 213 546L213 93C213 60 205 37 189 28C174 19 160 16 118 15L118 0Z"/></g><g transform="translate(220,-382.4) scale(0.707)"><g><path d="M474 104L460 117C453 108 446 99 439 91C410 54 392 38 378 38C369 38 362 45 362 54C362 62 366 81 376 117L433 323C439 344 442 366 442 380C442 416 415 441 376 441C312 441 249 380 146 221L213 439L210 441L48 410L48 394C99 393 112 387 112 367C112 361 111 355 110 350L14 0L89 0C136 158 145 180 189 248C249 341 300 390 337 390C352 390 361 379 361 361C361 349 355 316 347 285L303 120C290 68 287 55 287 45C287 7 301-9 334-9C379-9 404 11 474 104Z"/></g><g transform="translate(533,289) scale(0.707)"><path d="M475 137L462 142C425 85 412 76 367 76L128 76L296 252C385 345 424 421 424 499C424 599 343 676 239 676C184 676 132 654 95 614C63 580 48 548 31 477L52 472C92 570 128 602 197 602C281 602 338 545 338 461C338 383 292 290 208 201L30 12L30 0L420 0Z"/></g></g><rect width="862.2" height="60" x="120" y="220"/></g><g transform="translate(3747.5,0)"><path d="M580 320L580 372L80 372L80 320M580 128L580 180L80 180L80 128Z"/></g><g transform="translate(4685.3,0)"><g transform="translate(220,394) scale(0.707)"><g><path d="M686 452C634 433 563 418 489 418C391 418 299 431 254 431C185 431 139 372 122 311L142 311C153 351 183 365 204 365C217 365 252 360 298 356L256 197C237 126 205 43 148 43C128 43 101 62 112 103L92 103C75 41 67-15 136-15C228-15 255 92 284 200L325 354C365 350 410 347 452 347L478 347L385 0L480 0C480 0 495 112 521 208L559 351C600 355 636 360 663 366Z"/></g><g transform="translate(799,363) scale(0.707)"><path d="M475 137L462 142C425 85 412 76 367 76L128 76L296 252C385 345 424 421 424 499C424 599 343 676 239 676C184 676 132 654 95 614C63 580 48 548 31 477L52 472C92 570 128 602 197 602C281 602 338 545 338 461C338 383 292 290 208 201L30 12L30 0L420 0Z"/></g></g><g transform="translate(468.4,-345) scale(0.707)"><path d="M468 219C468 347 395 428 280 428C236 428 215 421 152 383C179 534 291 642 448 668L446 684C332 674 274 655 201 604C93 527 34 413 34 279C34 192 61 104 104 54C142 10 196-14 258-14C382-14 468 81 468 219M378 185C378 75 339 14 269 14C181 14 127 108 127 263C127 314 135 342 155 357C176 373 207 382 242 382C328 382 378 310 378 185Z"/></g><rect width="1050.3" height="60" x="120" y="220"/></g></g></g></g></svg>