<svg fill="currentColor" style="vertical-align: -0.805ex;" xmlns="http://www.w3.org/2000/svg" width="24.916ex" height="2.835ex" viewBox="0 -972.7 11934.7 1358.1"><g stroke="currentColor" stroke-width="0" transform="scale(1,-1)"><g><g><path d="M598 186L566 186C527 67 509 43 354 44L225 44L225 319L342 319C434 319 454 308 454 226L486 226L486 458L454 458C454 377 434 358 342 358L225 358L225 612L372 612C495 612 520 593 535 493L567 493L561 657L36 657L36 627C117 627 133 611 133 535L133 118C133 40 117 30 36 30L36 0L570 0Z"/><path d="M540 45L530 45C482 45 470 52 470 111L470 478L446 478L306 463L306 435C370 435 387 430 387 377L387 114C347 79 315 54 264 54C212 54 174 84 174 186L174 478L152 478L23 463L23 435C77 434 91 430 91 376L91 173C91 37 139-10 222-10C286-10 333 20 386 72L391 72L391-5L413-5L540 18Z" transform="translate(626,0)"/><path d="M260 29C188 29 183 43 183 101L183 706L158 706L26 671L26 644C26 644 41 646 58 646C83 646 100 644 100 603L100 101C100 45 96 29 30 29L30 0L260 0Z" transform="translate(1196,0)"/><path d="M415 143C383 101 352 65 271 65C191 65 115 128 115 266L431 266C426 406 354 485 245 485C128 485 34 405 34 238C34 77 127-10 247-10C350-10 398 53 434 129M114 303C122 396 162 445 230 445C301 445 334 377 337 303Z" transform="translate(1479,0)"/><path d="M183 482L159 482L35 452L35 424C35 424 46 426 66 426C102 426 102 408 102 372L102 97C102 41 95 29 29 29L29 0L279 0L279 29C204 29 185 39 185 102L185 330C209 370 241 412 264 412C276 412 296 378 329 378C351 378 373 394 373 432C373 466 354 488 315 488C267 488 237 453 186 379L183 379Z" transform="translate(1943,0)"/><path d="" transform="translate(2323,0)"/><path d="M176 482L151 482L25 454L25 425C25 425 44 427 57 427C90 427 95 414 95 376L95-119C95-175 85-192 22-192L22-220L275-220L275-191C197-191 178-178 178-113L178 18L182 18C211-2 245-10 283-10C403-10 502 91 502 261C502 392 433 485 334 485C275 485 227 454 179 398L176 398M178 356C197 381 240 417 293 417C367 417 411 359 411 233C411 94 358 29 288 29C232 29 197 74 178 95Z" transform="translate(2558,0)"/><path d="M183 482L159 482L35 452L35 424C35 424 46 426 66 426C102 426 102 408 102 372L102 97C102 41 95 29 29 29L29 0L279 0L279 29C204 29 185 39 185 102L185 330C209 370 241 412 264 412C276 412 296 378 329 378C351 378 373 394 373 432C373 466 354 488 315 488C267 488 237 453 186 379L183 379Z" transform="translate(3095,0)"/><path d="M258 485C123 485 34 387 34 242C34 80 118-10 258-10C388-10 480 78 480 246C480 394 395 485 258 485M254 447C343 447 388 364 388 241C388 78 344 30 262 30C176 29 127 96 127 255C127 383 178 447 254 447Z" transform="translate(3475,0)"/><path d="M498 473L323 473L323 444C359 444 380 439 380 417C380 401 374 389 373 384L287 158L266 97L260 97L241 157L156 380C150 394 146 406 146 419C146 435 159 444 198 444L198 473L-13 473L-13 444C30 444 42 433 68 371L217-6L265-6L423 378C443 430 459 444 498 444Z" transform="translate(3989,0)"/><path d="M415 143C383 101 352 65 271 65C191 65 115 128 115 266L431 266C426 406 354 485 245 485C128 485 34 405 34 238C34 77 127-10 247-10C350-10 398 53 434 129M114 303C122 396 162 445 230 445C301 445 334 377 337 303Z" transform="translate(4470,0)"/><path d="M514 18L514 45L493 45C456 45 443 55 443 107L443 706L416 706L290 671L290 643C290 643 307 645 316 645C355 645 360 636 360 592L360 461C329 478 296 485 263 485C137 485 33 384 33 219C33 91 91-8 204-8C270-8 321 30 359 64L363 64L363-5L386-5M360 101C325 77 298 64 251 64C166 64 120 120 120 258C120 384 177 445 261 445C323 445 352 406 360 365Z" transform="translate(4934,0)"/><path d="" transform="translate(5473,0)"/></g><g transform="translate(5874.7,0)"><g><g transform="translate(0 -17)"><path d="M861 70L821 70C781-66 746-150 621-150L196-150L196-145L545 315L545 334L237 725L237 729L566 729C700 729 766 699 789 532L828 532L817 782L69 782L69 758L449 282L62-224L62-248L800-248Z"/></g><g transform="translate(969,492.1) scale(0.707)"><g><path d="M878 227C878 364 784 440 692 440C588 440 541 375 494 290C397 421 346 440 271 440C212 440 75 393 75 205C75 63 168 0 256 0C354 0 424 55 470 148C533 54 592 0 675 0C805 0 878 128 878 227M447 185C419 148 370 86 279 86C189 86 137 171 137 258C137 323 182 380 239 380C309 380 373 310 447 188M515 251C544 294 583 354 674 354C765 354 817 275 817 182C817 116 772 60 714 60C645 60 588 126 515 248Z"/></g></g><g transform="translate(969,-300.4) scale(0.707)"><g><path d="M521 112C506 93 481 60 447 60C433 60 428 68 428 79C428 91 430 103 430 103L487 334C490 348 496 382 496 408C496 444 481 479 430 479C312 479 227 334 185 259L177 259L227 476L205 476L66 465L66 438C66 438 86 440 99 440C122 440 131 430 131 413C131 398 128 380 128 380L47 0L129 0L165 158C197 227 307 407 380 407C403 407 410 390 410 367C410 347 403 319 403 319L344 88C343 83 339 65 339 49C339 19 354-10 404-10C476-10 516 60 542 97Z"/></g><g transform="translate(565,0)"><path d="M658 327L658 395L62 395L62 327M658 123L658 190L62 190L62 123Z"/></g><g transform="translate(1285,0)"><path d="M426 0L426 28C334 28 297 46 297 95L297 639L268 639L74 584L74 551C105 561 156 567 176 567C201 567 209 553 209 518L209 95C209 45 174 28 80 28L80 0Z"/></g></g></g><g transform="translate(2444.3,0)"><g transform="translate(397.8,394) scale(0.707)"><path d="M426 0L426 28C334 28 297 46 297 95L297 639L268 639L74 584L74 551C105 561 156 567 176 567C201 567 209 553 209 518L209 95C209 45 174 28 80 28L80 0Z"/></g><g transform="translate(220,-378.4) scale(0.707)"><g><path d="M521 112C506 93 481 60 447 60C433 60 428 68 428 79C428 91 430 103 430 103L487 334C490 348 496 382 496 408C496 444 481 479 430 479C312 479 227 334 185 259L177 259L227 476L205 476L66 465L66 438C66 438 86 440 99 440C122 440 131 430 131 413C131 398 128 380 128 380L47 0L129 0L165 158C197 227 307 407 380 407C403 407 410 390 410 367C410 347 403 319 403 319L344 88C343 83 339 65 339 49C339 19 354-10 404-10C476-10 516 60 542 97Z"/></g><g transform="translate(598,289) scale(0.707)"><path d="M464 160L435 160C412 100 399 79 346 79L207 79L137 76L137 81L269 206C375 313 432 382 432 471C432 576 353 644 240 644C143 644 75 588 44 491L68 481C105 556 149 579 214 579C291 579 339 531 339 456C339 351 289 288 190 186L38 34L38 0L432 0Z"/></g></g><rect width="905.7" height="68" x="120" y="216"/></g><g transform="translate(3867.8,0)"><path d="M658 327L658 395L62 395L62 327M658 123L658 190L62 190L62 123Z"/></g><g transform="translate(4865.6,0)"><g transform="translate(220,394) scale(0.707)"><g><path d="M625 473C571 469 513 467 451 467C380 468 324 472 252 472C157 472 90 442 48 354L70 339C113 391 135 392 242 392C218 307 189 249 137 169C88 93 76 77 31 14L31 0L126 0C167 68 258 285 281 391C330 391 375 389 424 388C383 277 326 154 326 68C326 26 343-9 391-9C452-9 494 20 527 69L514 86C497 73 479 61 444 61C412 61 405 94 405 121C405 197 452 339 468 387C493 386 507 386 522 386C589 386 622 436 627 461Z"/></g><g transform="translate(667,363) scale(0.707)"><path d="M464 160L435 160C412 100 399 79 346 79L207 79L137 76L137 81L269 206C375 313 432 382 432 471C432 576 353 644 240 644C143 644 75 588 44 491L68 481C105 556 149 579 214 579C291 579 339 531 339 456C339 351 289 288 190 186L38 34L38 0L432 0Z"/></g></g><g transform="translate(422.2,-345) scale(0.707)"><path d="M415 646C200 637 45 498 45 257C45 110 110-12 259-12C385-12 457 67 457 203C457 334 386 413 277 413C225 413 188 391 147 351L140 352C165 498 277 596 417 617M370 195C370 68 330 23 263 23C176 23 135 112 135 236C135 323 189 355 247 355C330 355 370 285 370 195Z"/></g><rect width="954.5" height="68" x="120" y="216"/></g></g></g></g></svg>